<svg width="44" height="33" viewBox="0 0 44 33" fill="none" xmlns="http://www.w3.org/2000/svg">
<path fillRule="evenodd" clipRule="evenodd" d="M0 10.8349C0 13.3727 1.42522 13.6145 3.86606 14.7034L7.39173 16.3339C8.3296 16.7523 9.31603 17.1727 10.2256 17.6252C10.4654 17.7444 10.6786 17.81 10.9436 17.9385C11.235 18.0795 11.3311 18.13 11.6512 18.2623L19.433 21.8244C20.9138 22.3863 22.1818 22.5024 23.7199 22.0942C23.9915 22.0222 24.2671 21.933 24.5044 21.8474L31.5969 18.6273C31.8785 18.4959 32.0048 18.4195 32.3006 18.2997C32.5471 18.1998 32.7599 18.0769 33.0012 17.9692L41.5068 14.0997C42.1673 13.8051 42.9874 13.4513 43.4138 12.913C43.7612 12.4747 43.9548 11.9522 44 11.419V10.9282C43.9186 9.97419 43.3652 9.05742 42.3675 8.60052L37.4699 6.36545C36.0687 5.6687 33.9157 4.81774 32.5705 4.13208C32.3158 4.00214 32.1532 3.93931 31.8582 3.81321C31.5826 3.69542 31.4454 3.59914 31.1594 3.48092C30.1729 3.07344 29.2902 2.6306 28.3315 2.18393C27.3802 1.74066 26.4771 1.39282 25.5528 0.923356C23.0336 -0.35681 21.0015 -0.268412 18.5051 0.894814L4.58325 7.25432C4.11421 7.47286 3.698 7.65456 3.23812 7.88588C2.20056 8.40796 0.000213006 8.98478 0.000213006 10.8354L0 10.8349ZM38.5002 18.3975L38.4951 26.1371C38.5206 27.4117 40.0428 28.0194 40.931 27.0159C41.2271 26.6813 41.2575 26.4815 41.2524 25.8764L41.2501 17.1945C40.881 17.2805 38.9831 18.285 38.5002 18.3975ZM21.2267 33.007C25.1332 33.007 27.268 32.7096 30.9476 31.3841C32.5927 30.7917 33.9112 30.1612 34.8759 28.6953C35.2508 28.1255 35.6834 27.142 35.7467 26.3005C35.8947 24.3353 35.7501 21.723 35.7501 19.6866L34.1536 20.4104C33.59 20.6432 33.0602 20.9148 32.5143 21.1772C31.9577 21.4448 31.4633 21.6226 30.908 21.8915C30.5953 22.0427 30.3827 22.1309 30.0794 22.2659L26.0155 24.1316C22.3509 25.6981 19.8066 25.0569 16.3846 23.4117C15.8385 23.149 15.309 22.8775 14.7453 22.6449L8.25036 19.6866C8.25036 21.7911 8.14982 24.1461 8.24929 26.2189C8.32662 27.8326 9.4498 29.4679 10.7572 30.3282C11.3087 30.6909 12.3469 31.1238 12.9889 31.3619C13.8126 31.6676 14.5888 31.9021 15.4585 32.1581C16.9425 32.5948 19.3128 33.0072 21.2269 33.0072L21.2267 33.007Z" fill="#3F77A5"/>
</svg>
