<svg width="46" height="33" viewBox="0 0 46 33" fill="none" xmlns="http://www.w3.org/2000/svg">
<path fillRule="evenodd" clipRule="evenodd" d="M23.8947 12.1933C25.4461 12.6076 28.2012 16.3535 26.2137 19.1439C25.7755 19.7595 24.8434 20.4041 23.7896 20.4041C22.2985 20.4041 17.1392 20.5366 16.0216 20.2702C15.5747 20.1635 14.7212 19.7828 15.6121 21.5291L19.2634 29.4568C18.0004 29.4568 16.7365 29.4619 15.4735 29.4565C14.6854 29.453 14.3542 29.3856 13.8741 29.7516C12.3993 30.8763 13.441 32.8251 14.6318 32.8251H44.5265C45.3017 32.8251 46 31.964 46 31.1408C46 30.3876 43.6497 25.7601 43.2977 25.0009C42.8086 23.9455 42.3864 22.9856 41.8932 21.9842L39.7879 17.458C38.653 15.1607 37.3951 12.1109 36.2806 9.91263C35.6887 8.74451 35.5108 7.45659 34 7.45659C33.3962 7.45659 31.9208 8.23087 31.3685 8.50973C30.5553 8.9205 29.6596 9.26196 28.8403 9.66571C28.4072 9.87909 28.1264 10.0302 27.623 10.2381L25.0539 11.4583C24.806 11.5807 24.6783 11.6158 24.3847 11.7365C24.0531 11.8732 23.9861 11.8499 23.8944 12.1936L23.8947 12.1933ZM0 1.24607V14.9304C0 16.3365 1.85137 15.9832 3.47372 15.9832C4.13237 15.9832 4.52655 15.3997 4.52655 14.7199V1.56197C4.52655 -0.091677 2.88407 0.193572 1.36842 0.193572C0.675908 0.193572 0 0.562503 0 1.24607ZM6.73694 1.45656V13.7725H10.0002C10.486 13.7725 11.8043 14.4593 12.2125 14.7183C12.4878 14.8931 12.9366 15.8354 13.5521 16.5365C14.5676 17.6925 16.4352 18.2991 18.1055 18.2991C19.3682 18.2991 23.6005 18.5134 24.2576 18.0298C25.3714 17.2108 24.5016 14.6244 22.4116 13.8878C20.4632 13.2011 18.0004 14.451 18.0004 12.6146C18.0004 11.2025 19.6282 11.5621 21.3687 11.5621C21.9031 10.5521 23.0636 9.90304 24.1806 9.42647L27.5792 7.87791C27.4425 7.36587 24.8328 4.77153 24.3004 4.10426C22.5777 1.94496 19.847 0.437608 16.992 0.869787L6.73694 1.45688V1.45656Z" fill="#3F77A5"/>
</svg>
