<svg width="33" height="22" viewBox="0 0 33 22" fill="none" xmlns="http://www.w3.org/2000/svg">
<path id="Vector" d="M1.824 18.9319L0.420019 20.3233C0.156019 19.8595 0 19.3125 0 18.7297V3.27007C0 2.68738 0.156 2.1403 0.420019 1.67653L9.82801 10.9999L1.824 18.9319ZM32.6039 1.71223L31.9199 2.37818L23.1958 11.0238L32.58 20.3236C32.844 19.8598 33 19.3128 33 18.73V3.27037C33 2.69955 32.8558 2.17604 32.6039 1.71223ZM3.0958 1.80736L15.4679 14.0682C16.0439 14.639 17.0039 14.6509 17.5919 14.0682L21.2518 10.4411C21.2518 10.4411 21.2758 10.4054 21.2878 10.3935L31.3317 0.439986C30.8517 0.154577 30.2877 0 29.6997 0H3.29977C2.71179 0 2.15975 0.154597 1.69177 0.416241L3.0958 1.80736ZM29.9036 20.1923L21.9237 12.2842L18.8637 15.3285C18.2157 15.9588 17.3757 16.2799 16.5237 16.2799C15.6716 16.2799 14.8317 15.9588 14.1957 15.3285L11.0997 12.2604L1.69167 21.5838C2.15969 21.8454 2.71165 22 3.29967 22H29.6996C30.2876 22 30.8397 21.8454 31.3076 21.5838L29.9036 20.1923Z" fill="#3F77A5"/>
</svg>
