<svg width="98" height="26" viewBox="0 0 98 26" fill="none" xmlns="http://www.w3.org/2000/svg">
<g id="Group 1410135949">
<g id="_2227557026112">
<g id="Group">
<path id="Vector" d="M2.06965 3.91725L12.479 21.9466L14.5487 25.7302L24.3879 8.68842L22.7459 5.64474L21.7486 3.91725L19.6789 0.332451H15.5395L17.6093 3.91725L20.2486 8.48946L14.5487 18.3617L6.20904 3.91725H9.75994L16.3242 15.2864L18.3938 11.7021L13.8996 3.91725L11.8297 0.332451H7.69029H4.13939H0L2.06965 3.91725Z" fill="#3F77A5"/>
<path id="Vector_2" fillRule="evenodd" clipRule="evenodd" d="M24.8675 0.332451H22.8937L23.8807 2.04206L25.1225 4.19297L26.1095 5.90284L27.0966 4.19297L29.3255 0.332451H24.8675Z" fill="#DB7B3A"/>
</g>
<path id="Vector_3" d="M42.9423 7.88308L39.3612 16.1725L35.83 7.88308H32.9287L37.9355 19.4882H40.5881L45.6115 7.88308H42.9423ZM59.6509 19.4882L59.6177 7.88308H57.41L53.1354 15.0949L48.7946 7.88308H46.573V19.4882H49.093V12.6743L52.4889 18.2614H53.6992L57.1116 12.5252L57.1282 19.4882H59.6509ZM68.6228 10.5689V14.9788C68.6228 16.6201 67.7607 17.3827 66.567 17.3827C65.4231 17.3827 64.7599 16.7196 64.7599 15.2275V10.5689H62.1737V15.6088C62.1737 18.3609 63.7486 19.6209 65.9867 19.6209C67.081 19.6209 68.0757 19.2064 68.7555 18.4273V19.4882H71.2091V10.5689H68.6228ZM80.2611 19.4882H83.3945L79.3493 14.3488L83.063 10.5689H79.9793L76.1993 14.1499V7.18682H73.6131V19.4882H76.1993V17.217L77.4427 15.9901L80.2611 19.4882ZM89.6115 17.2335C89.3297 17.4491 88.9484 17.5651 88.5671 17.5651C87.8708 17.5651 87.4563 17.1506 87.4563 16.388V12.7573H89.6779V10.7678H87.4563V8.59597H84.87V10.7678H83.494V12.7573H84.87V16.4212C84.87 18.5433 86.0969 19.6209 88.2024 19.6209C88.9981 19.6209 89.7774 19.4385 90.3079 19.0572L89.6115 17.2335ZM93.06 9.32545C94.0215 9.32545 94.6681 8.69545 94.6681 7.83335C94.6681 7.03761 94.0215 6.44073 93.06 6.44073C92.0984 6.44073 91.4518 7.07073 91.4518 7.88308C91.4518 8.69544 92.0984 9.32545 93.06 9.32545ZM91.7668 19.4882H94.353V10.5689H91.7668V19.4882Z" fill="#3F77A5"/>
<path id="Vector_4" d="M95.3696 6.87052H95.7073V5.68652H96.1742V5.41127H94.9027V5.68652H95.3696V6.87052ZM98 6.87052L97.9958 5.41127H97.7182L97.1808 6.31814L96.635 5.41127H96.3557V6.87052H96.6725V6.01379L97.0994 6.71629H97.2517L97.6807 5.99496L97.6828 6.87052H98Z" fill="black"/>
</g>
</g>
</svg>
