<svg width="37" height="33" viewBox="0 0 37 33" fill="none" xmlns="http://www.w3.org/2000/svg">
<path fillRule="evenodd" clipRule="evenodd" d="M13.7542 16.5052H26.0271C26.0911 16.7449 27.1631 18.2798 27.3813 18.6072L28.7779 20.7373H10.2979C10.5311 20.3891 10.8714 20.0261 11.1601 19.695L12.8896 17.6156C13.0708 17.412 13.6991 16.7113 13.7542 16.5052ZM0 22.8533V28.2139C0 28.707 0.248839 28.9885 0.605374 29.1602C0.975238 29.3385 1.60777 29.2719 2.11601 29.2719C2.17542 28.558 2.29205 27.8548 2.56176 27.3196C2.90427 26.6399 3.03228 26.4159 3.54423 25.9039C6.55519 22.8931 11.638 24.9774 11.638 29.2719H22.853C22.853 27.9917 23.3811 26.7855 24.2085 25.9017L24.8689 25.363C25.1303 25.1803 25.3263 25.0607 25.6263 24.9213C28.7192 23.4837 32.375 25.7464 32.375 29.2719H35.1258C35.3344 29.2719 35.6921 29.0838 35.8111 28.9697C35.9813 28.8068 36.1133 28.5299 36.1133 28.2139V21.6542C36.1133 21.3079 35.7821 20.9648 35.519 20.838C35.1089 20.6404 31.9766 20.7373 31.3875 20.7373L27.5513 14.9808C27.3837 14.7225 27.116 14.3892 26.7323 14.3892H13.1192C12.7257 14.3892 12.5002 14.6811 12.3131 14.9232C12.1113 15.1844 11.8989 15.4016 11.6987 15.6489C10.5415 17.0782 9.10853 18.6758 8.01082 20.0724C7.24714 21.0441 7.38237 20.8776 6.28963 21.0316C5.41549 21.1548 1.00875 21.6847 0.512327 21.955C0.212626 22.1182 0 22.4158 0 22.8534L0 22.8533Z" fill="#3F77A5"/>
<path fillRule="evenodd" clipRule="evenodd" d="M17.6336 1.55176C17.0228 1.40949 16.3765 1.21597 15.7437 1.04352C15.1972 0.894581 14.2123 0.564325 13.6837 0.564325C13.0687 0.564325 12.6962 1.24458 12.6962 1.90447V6.70084C12.6962 7.48282 13.1704 8.04098 13.7542 8.04098C14.1978 8.04098 17.0971 7.09812 17.6336 7.05348C17.8245 7.87318 18.6918 8.53476 19.3969 8.53476H24.5459C25.1018 8.53476 25.6868 8.2355 26.0083 7.88117C26.3385 7.51721 26.5914 6.95308 26.5914 6.27766V2.32771C26.5914 0.944687 25.6469 0 24.2638 0H19.8201C18.7064 0 17.6995 0.759723 17.6337 1.55176H17.6336Z" fill="#3F77A5"/>
<path fillRule="evenodd" clipRule="evenodd" d="M6.84178 30.8229C6.1035 30.8229 5.36056 30.1604 5.36056 29.4122C5.36056 28.8402 5.34114 28.5584 5.9064 28.0536C6.76143 27.2902 8.46407 27.6829 8.46407 29.3416C8.46407 30.1827 7.72013 30.8229 6.84178 30.8229ZM3.17401 29.1301C3.17401 30.7598 4.02822 32.0652 5.36006 32.6573C6.3436 33.0946 7.411 33.1144 8.41623 32.6794C10.1336 31.9362 11.2148 29.6509 10.3462 27.8123C8.49004 23.8834 3.17407 25.4717 3.17407 29.1301H3.17401Z" fill="#3F77A5"/>
<path fillRule="evenodd" clipRule="evenodd" d="M26.0271 29.2715C26.0271 27.1377 29.2011 27.2429 29.2011 29.201C29.2011 31.3952 26.0271 31.2457 26.0271 29.2715ZM23.9111 28.9189C23.9111 30.1319 24.058 31.1191 25.0791 31.9828C25.465 32.3093 25.6415 32.4653 26.1465 32.6788C27.8681 33.4066 29.503 32.8526 30.6234 31.4697C31.0661 30.9233 31.2962 30.1565 31.3337 29.366C31.4335 27.2562 29.6634 25.5332 27.7904 25.5332C26.5913 25.5332 25.7701 25.8272 25.0206 26.5723C24.5247 27.0651 23.911 27.9705 23.911 28.9189H23.9111Z" fill="#3F77A5"/>
</svg>
