<svg width="35" height="34" viewBox="0 0 35 34" fill="none" xmlns="http://www.w3.org/2000/svg">
<path d="M7.50561 11.0052C9.78614 11.0052 11.6368 12.8394 11.6368 15.1034C11.6368 17.3675 9.78614 19.2032 7.50561 19.2032C5.22508 19.2032 3.37605 17.3667 3.37605 15.1034C3.37605 12.8402 5.22508 11.0052 7.50561 11.0052ZM10.6427 15.58H7.50561C7.24272 15.58 7.02777 15.3667 7.02777 15.1034V11.9925C4.47716 12.3771 3.42159 15.5015 5.26343 17.3286C7.10687 19.158 10.2552 18.1105 10.6427 15.58ZM7.98585 11.9917V14.6284H10.6427C10.4342 13.2708 9.35384 12.1987 7.98585 11.9917ZM15.2973 10.3058C15.0344 10.3058 14.8194 10.0925 14.8194 9.82921C14.8194 9.56594 15.0344 9.35262 15.2973 9.35262H16.1171V7.63499C16.1171 7.37171 16.3321 7.15839 16.595 7.15839C16.8602 7.15839 17.0752 7.37171 17.0752 7.63499V9.35262H18.9394V5.43918C18.9394 5.17828 19.152 4.96496 19.4173 4.96496C19.6825 4.96496 19.8975 5.17828 19.8975 5.43918V9.35262H21.7617V4.17434C21.7617 3.91107 21.9743 3.69775 22.2395 3.69775C22.5048 3.69775 22.7198 3.91107 22.7198 4.17434V9.35341H24.584V6.95935C24.584 6.69608 24.7966 6.48514 25.0618 6.48514C25.3271 6.48514 25.5421 6.69608 25.5421 6.95935V9.35341H26.3867C26.652 9.35341 26.8669 9.56673 26.8669 9.83001C26.8669 10.0933 26.652 10.3066 26.3867 10.3066H15.2973V10.3058ZM4.00811 2.76043H11.0047C11.27 2.76043 11.4825 2.97374 11.4825 3.23702V8.55328C11.4825 8.81418 11.27 9.02749 11.0047 9.02749H4.00811C3.74282 9.02749 3.53026 8.81418 3.53026 8.55328V3.23702C3.53026 2.97374 3.74361 2.76043 4.00811 2.76043ZM10.5253 3.71282H4.48834V8.07589H10.5245V3.71282H10.5253ZM3.50549 24.6091C3.2402 24.6091 3.02526 24.3958 3.02526 24.1325C3.02526 23.8692 3.2402 23.6559 3.50549 23.6559H12.2576C12.5229 23.6559 12.7379 23.8692 12.7379 24.1325C12.7379 24.3958 12.5229 24.6091 12.2576 24.6091H3.50549ZM6.44125 27.4615C6.17597 27.4615 5.96102 27.2482 5.96102 26.9849C5.96102 26.7217 6.17597 26.5083 6.44125 26.5083H12.6771C12.9424 26.5083 13.1574 26.7217 13.1574 26.9849C13.1574 27.2482 12.9424 27.4615 12.6771 27.4615H6.44125ZM31.9777 16.5174C27.98 12.5524 21.4501 12.485 17.3836 16.5174C13.354 20.5165 13.354 27.0016 17.3836 31.0007C21.4133 34.9998 27.9481 34.9998 31.9777 31.0007C36.0074 27.0008 36.0074 20.5157 31.9777 16.5174ZM24.6791 12.5674C26.2828 12.5674 27.8074 12.9005 29.189 13.4984V1.14826C29.189 0.518621 28.668 0 28.032 0H1.15944C0.522588 0 0 0.519414 0 1.14826V19.5292C0 20.1612 0.523387 20.6798 1.15944 20.6798H13.835C15.1982 15.9416 19.5851 12.5674 24.6791 12.5674ZM25.2616 16.4634H24.0998C24.0247 16.4634 23.9639 16.5261 23.9639 16.6006H23.9615V17.0479H23.9639C23.9639 17.5427 23.6307 17.9693 23.1505 18.0978C22.6479 18.2302 22.174 18.4261 21.7281 18.6822C21.2975 18.9297 20.7565 18.8599 20.4057 18.5118L20.0861 18.1946C20.0589 18.1652 20.0245 18.1517 19.991 18.1517V18.1541C19.955 18.1541 19.9183 18.1676 19.8935 18.1946L19.0713 19.0082C19.0193 19.0597 19.0193 19.1477 19.0713 19.2017L19.3909 19.5189C19.7441 19.8694 19.8144 20.4023 19.5627 20.8313C19.3046 21.2738 19.1096 21.744 18.9762 22.2404C18.8467 22.717 18.4168 23.0477 17.9182 23.0477H17.4651C17.39 23.0477 17.3293 23.1088 17.3293 23.1825V24.3355C17.3293 24.6591 18.0045 24.2546 18.5838 24.6956C18.7716 24.8375 18.9098 25.0397 18.9754 25.2776C19.0409 25.5274 19.1248 25.7701 19.2223 26.0016L19.5619 26.6891C19.8136 27.1166 19.7433 27.6487 19.3901 28L19.0705 28.3196C19.0185 28.3711 19.0185 28.4591 19.0705 28.5107L19.8927 29.3267H19.8903C19.9175 29.3536 19.9534 29.3647 19.9902 29.3647V29.3671C20.0245 29.3671 20.0581 29.3536 20.0853 29.3267L20.4049 29.0095H20.4073C20.7605 28.6613 21.2975 28.5892 21.7281 28.839C22.1724 29.0927 22.6503 29.2886 23.1505 29.421C23.6307 29.5495 23.9639 29.9761 23.9639 30.471V30.9206C23.9639 30.9951 24.0255 31.0554 24.0998 31.0554H25.2616C25.5852 31.0554 25.1777 30.3853 25.6244 29.8104C25.7674 29.624 25.9712 29.4868 26.2109 29.4218C26.7111 29.2894 27.1898 29.0935 27.6308 28.8398C28.0631 28.59 28.6049 28.6621 28.9533 29.0103L29.2729 29.3275C29.3272 29.379 29.4159 29.379 29.4679 29.3275L30.2877 28.5115C30.3173 28.4845 30.3309 28.4504 30.3309 28.4147H30.3285L30.2901 28.3203L29.9681 28.0031L29.9705 28.0008C29.6173 27.6503 29.547 27.1174 29.7963 26.6899C29.9233 26.4695 30.0384 26.2403 30.1383 26.0024C30.2334 25.7732 30.3173 25.533 30.3852 25.2784C30.5147 24.8018 30.9446 24.4711 31.4432 24.4711H31.8938C31.969 24.4711 32.0321 24.4101 32.0321 24.3363V23.1833C32.0321 22.8621 31.3545 23.2666 30.7775 22.8233C30.5898 22.6813 30.4491 22.4791 30.386 22.2412C30.2502 21.7424 30.0552 21.2746 29.7971 20.8321C29.5478 20.4031 29.6181 19.8678 29.9689 19.5197L30.2885 19.2025C30.3429 19.1485 30.3429 19.0605 30.2885 19.009L29.4687 18.1953C29.4167 18.1438 29.328 18.1414 29.2737 18.1953L28.9541 18.5125V18.5102C28.6009 18.8607 28.0639 18.9305 27.6316 18.683C27.1834 18.4245 26.7167 18.2334 26.2117 18.0986C25.7315 17.9701 25.3982 17.5435 25.3982 17.0487V16.6014C25.3974 16.5261 25.3367 16.4634 25.2616 16.4634ZM24.0998 15.5126H25.2616C25.8641 15.5126 26.3555 16.0003 26.3555 16.6006C26.3555 16.8837 26.3036 17.1375 26.4578 17.1803C27.0307 17.331 27.5997 17.5673 28.1111 17.8591C28.1702 17.8932 28.2285 17.8861 28.2789 17.8385L28.2765 17.8361C28.6073 17.5078 28.8446 17.2025 29.3704 17.2025C29.6509 17.2025 29.9321 17.308 30.1447 17.5197L30.9669 18.3357C31.3928 18.7584 31.3928 19.4483 30.9669 19.8733C30.8806 19.959 30.6137 20.1929 30.6042 20.2667C30.6018 20.296 30.6065 20.3253 30.6249 20.3547C30.9238 20.867 31.1547 21.4244 31.3089 21.9954C31.3273 22.0604 31.3744 22.0969 31.4424 22.0969C31.9178 22.0969 32.2966 22.0454 32.6681 22.4141C32.8671 22.6116 32.9902 22.8836 32.9902 23.1825V24.3355C32.9902 24.9358 32.4987 25.4235 31.8938 25.4235C31.7668 25.4235 31.4208 25.4013 31.3569 25.4505C31.3345 25.4663 31.3185 25.4909 31.3089 25.525L31.0213 26.3656C30.9078 26.64 30.7744 26.9072 30.6249 27.1634C30.5906 27.222 30.5978 27.2823 30.6457 27.3299L30.6481 27.3275C30.9789 27.6558 31.2866 27.8913 31.2866 28.4131H31.2842C31.2842 28.6938 31.1803 28.973 30.9669 29.1839L30.1447 29.9975C29.7188 30.4226 29.0236 30.4226 28.5953 29.9975L28.2621 29.6669C28.2237 29.6312 28.1598 29.6288 28.1103 29.6581C27.5917 29.9547 27.0363 30.1839 26.457 30.3393C26.3915 30.3552 26.3571 30.4043 26.3571 30.4694C26.3571 30.9412 26.4067 31.3195 26.0351 31.6874C25.8361 31.8833 25.5621 32.0046 25.2608 32.0046H24.0998C23.4949 32.0046 23.0035 31.5169 23.0035 30.919C23.0035 30.6335 23.0578 30.3798 22.9012 30.3393C22.3235 30.1839 21.7689 29.9547 21.2503 29.6581C21.1912 29.624 21.1304 29.6336 21.0825 29.6803H21.0849C20.7477 30.015 20.5168 30.3139 19.991 30.3139V30.3163C19.7097 30.3163 19.4316 30.2085 19.2167 29.9967L18.3945 29.1831C17.9598 28.7494 17.9662 28.0365 18.4216 27.6209L18.7141 27.3283C18.762 27.2807 18.7708 27.2205 18.7365 27.1618C18.5894 26.908 18.4552 26.6424 18.3401 26.364C18.2243 26.092 18.1292 25.8113 18.0501 25.5234C18.0341 25.4584 17.9845 25.4219 17.919 25.4219C17.4436 25.4219 17.0648 25.4711 16.6932 25.1024C16.4943 24.9049 16.3712 24.6329 16.3712 24.3339V23.1809C16.3712 22.583 16.8626 22.0953 17.4651 22.0953C17.7528 22.0953 18.0085 22.1469 18.0493 21.9938C18.2035 21.4205 18.4392 20.863 18.7357 20.3531C18.77 20.2944 18.7604 20.2341 18.7133 20.1889C18.3761 19.8543 18.0724 19.6251 18.0724 19.1033C18.0724 18.8242 18.1811 18.5482 18.3945 18.3349L19.2143 17.5189C19.4292 17.308 19.7105 17.2017 19.991 17.2017V17.2041C20.822 17.2041 20.9922 18.0066 21.2503 17.8583C21.7665 17.5641 22.3258 17.3326 22.9012 17.1795C22.9667 17.1613 23.0035 17.1145 23.0035 17.0471H23.0059V16.5998H23.0035C23.0035 16.0003 23.4949 15.5126 24.0998 15.5126ZM26.942 21.514C25.6915 20.2754 23.6667 20.2754 22.4185 21.514C21.168 22.7551 21.168 24.7645 22.4185 26.0032C23.6667 27.2442 25.6915 27.2442 26.942 26.0032C28.1902 24.7645 28.1902 22.7551 26.942 21.514ZM24.6791 19.6323C26.9756 19.6323 28.8374 21.4799 28.8374 23.759C28.8374 26.0357 26.9756 27.8842 24.6791 27.8842C22.385 27.8842 20.5224 26.0365 20.5224 23.759C20.5232 21.4807 22.385 19.6323 24.6791 19.6323Z" fill="#3F77A5"/>
</svg>
