<svg width="39" height="33" viewBox="0 0 39 33" fill="none" xmlns="http://www.w3.org/2000/svg">
<path id="Vector" d="M29.1375 10.2183L26.1928 5.04522L24.3189 5.94059C22.5172 4.0433 20.2135 2.70739 17.6826 2.08916L17.5276 0H11.61L11.455 2.08916C8.92411 2.70739 6.62032 4.0433 4.81865 5.94059L2.95882 5.04522L0 10.2183L1.70482 11.3837C0.958094 13.9099 0.958094 16.6032 1.70482 19.129L0 20.2944L2.95882 25.4675L4.81865 24.5579C6.61509 26.4641 8.92051 27.8071 11.455 28.4236L11.61 30.5127H17.5276L17.6826 28.4236C18.3272 28.2708 18.9594 28.0665 19.5706 27.8124C18.5861 24.7569 18.9207 21.426 20.49 18.6314C22.061 15.8352 24.7221 13.8348 27.8269 13.1172C27.7336 12.5309 27.6015 11.9518 27.4324 11.3833L29.1375 10.2183ZM14.611 13.8281C16.4568 13.869 18.0207 15.2138 18.3518 17.0471C18.6829 18.8786 17.6914 20.6924 15.9777 21.3888C16.337 23.8013 13.0559 24.0624 13.1598 21.6446H12.103C11.3334 21.634 10.7152 20.9998 10.7152 20.2234C10.7152 19.4471 11.3334 18.8129 12.103 18.8023H14.5688C14.8488 18.7987 15.1183 18.6832 15.3137 18.4807C15.5092 18.2782 15.6184 18.0046 15.6149 17.7222C15.6114 17.4397 15.4951 17.1679 15.2943 16.9707C15.0918 16.7735 14.8206 16.6652 14.5405 16.6705C12.693 16.6403 11.1221 15.3008 10.7857 13.4675C10.451 11.6342 11.4443 9.81685 13.1598 9.124C12.7987 6.69375 16.0834 6.43262 15.9777 8.86818H17.0344C17.8041 8.87884 18.424 9.51306 18.424 10.2894C18.424 11.0657 17.8041 11.6999 17.0344 11.7105H14.5687C14.2887 11.7123 14.0192 11.8278 13.8238 12.0303C13.6283 12.2346 13.5208 12.5082 13.5261 12.7907C13.5332 13.0749 13.6511 13.3431 13.8537 13.5385C14.058 13.7322 14.331 13.837 14.611 13.8281ZM27.968 16.0168C18.6264 18.8875 20.4159 32.8008 30.3914 33C32.887 33.0035 35.2612 31.9146 36.8974 30.012C38.5318 28.1111 39.268 25.5867 38.9122 23.0961C38.5565 20.6037 37.1457 18.3901 35.0446 17.033C32.9435 15.674 30.3612 15.3026 27.968 16.0168ZM33.9843 23.8335L30.9973 26.8322C30.7367 27.104 30.3791 27.2586 30.004 27.2586C29.6289 27.2586 29.2714 27.104 29.0107 26.8322L26.8268 24.6293C26.2932 24.0733 26.3002 23.1886 26.8427 22.6415C27.3851 22.0943 28.2622 22.0872 28.8134 22.6255L29.997 23.8193L31.9836 21.8296C32.5349 21.2878 33.4137 21.2931 33.9596 21.8403C34.5056 22.3856 34.5162 23.2739 33.9843 23.8335Z" fill="#3F77A5"/>
</svg>
