<svg width="35" height="29" viewBox="0 0 35 29" fill="none" xmlns="http://www.w3.org/2000/svg">
<path d="M26.149 8.97974L23.5064 4.43368L21.8247 5.22052C20.2077 3.5532 18.1403 2.37922 15.869 1.83593L15.7299 0H10.4192L10.2801 1.83593C8.00882 2.37922 5.94131 3.5532 4.32443 5.22052L2.65535 4.43368L0 8.97974L1.52997 10.0039C0.859828 12.2238 0.859828 14.5907 1.52997 16.8104L0 17.8345L2.65535 22.3805L4.32443 21.5812C5.93661 23.2563 8.00558 24.4365 10.2801 24.9783L10.4192 26.8142H15.7299L15.869 24.9783C16.4475 24.844 17.0149 24.6645 17.5633 24.4412C16.6798 21.756 16.9801 18.8289 18.3884 16.373C19.7983 13.9158 22.1865 12.1579 24.9729 11.5272C24.8891 11.012 24.7706 10.5031 24.6188 10.0035L26.149 8.97974ZM19.8268 12.6266C19.8189 13.1449 19.4885 13.6054 18.9954 13.7849C18.5022 13.9645 17.9491 13.8271 17.6013 13.4384L14.6046 16.3983C14.3691 16.6324 14.0483 16.7636 13.7132 16.7636C13.3781 16.7636 13.0572 16.6324 12.8218 16.3983L10.9504 14.5374L8.48466 16.9728C7.98992 17.4458 7.20281 17.4412 6.71285 16.9603C6.22446 16.4811 6.21338 15.7036 6.68914 15.2118L10.0526 11.8897C10.2881 11.6556 10.6089 11.5244 10.944 11.5244C11.2791 11.5244 11.5999 11.6556 11.8354 11.8897L13.7195 13.7381L15.8184 11.6649C15.4201 11.3261 15.2763 10.7782 15.4565 10.2911C15.6351 9.80245 16.1014 9.47462 16.6277 9.46682H18.5623C18.8974 9.46526 19.2198 9.5964 19.4569 9.83213C19.6955 10.0663 19.8283 10.3848 19.8267 10.7157L19.8268 12.6266ZM25.0994 14.0753C16.716 16.5981 18.322 28.8249 27.2743 29C29.514 29.0031 31.6447 28.0461 33.113 26.3741C34.5798 24.7037 35.2405 22.4853 34.9212 20.2966C34.602 18.1063 33.3359 16.161 31.4503 14.9684C29.5647 13.7741 27.2472 13.4477 25.0994 14.0753ZM27.2996 20.1325C28.6747 20.1653 29.8491 21.1191 30.1462 22.4461C30.4418 23.7715 29.7843 25.1266 28.5514 25.7276C28.5909 26.0602 28.4945 26.3958 28.2843 26.6581C28.0725 26.9203 27.7643 27.0889 27.4276 27.1249C27.0894 27.1608 26.7511 27.064 26.4888 26.8532C26.2248 26.6425 26.0573 26.3365 26.0225 26.0024C24.0326 26.3006 23.6201 23.695 25.5673 23.5046H27.287C27.5256 23.4905 27.7106 23.2922 27.7042 23.0549C27.6979 22.8192 27.5019 22.6303 27.2617 22.6303C25.885 22.596 24.709 21.6359 24.4167 20.3058C24.1227 18.9772 24.7849 17.6222 26.0225 17.0227C25.9814 16.6902 26.0763 16.3561 26.2849 16.0938C26.4951 15.8315 26.8033 15.663 27.14 15.6255C27.4767 15.5896 27.8133 15.6879 28.0773 15.8987C28.3396 16.1094 28.5056 16.4154 28.5388 16.7479C28.896 16.6324 29.2848 16.6761 29.6072 16.865C29.9297 17.0555 30.1526 17.3739 30.2189 17.7393C30.2853 18.103 30.1889 18.4793 29.9534 18.768C29.7195 19.0569 29.3686 19.2317 28.994 19.2458H27.2869C26.7053 19.1974 26.7132 20.1777 27.2996 20.1325Z" fill="#3F77A5"/>
</svg>
