<svg width="35" height="39" viewBox="0 0 35 39" fill="none" xmlns="http://www.w3.org/2000/svg">
<path fill-rule="evenodd" clip-rule="evenodd" d="M17.1177 38.9507C7.15352 35.5163 0 26.2241 0 15.3034V4.64104C0 4.15553 0.40144 3.76102 0.896807 3.76102C7.24924 3.75926 13.6136 2.78648 16.9855 0.979473C17.1171 0.909027 17.2649 0.871452 17.4156 0.871452H17.5838C17.7339 0.871452 17.8817 0.909027 18.0139 0.979473C21.3852 2.78648 27.7496 3.75926 34.1026 3.76102C34.598 3.76102 35 4.15553 35 4.64104V15.3034C35 26.2241 27.8453 35.5169 17.8811 38.9507C17.7854 38.9836 17.6849 39 17.5838 39H17.4156C17.3139 39 17.2134 38.9836 17.1177 38.9507ZM24.2114 23.3868V16.8234C24.2114 15.7567 23.5635 14.8367 22.6332 14.4211V12.3123C22.6332 9.53076 20.334 7.27523 17.5 7.27523C14.666 7.27523 12.3668 9.53076 12.3668 12.3123L12.3662 14.4211C11.4359 14.8361 10.7886 15.7567 10.7886 16.8234V23.3868C10.7886 24.841 11.9917 26.0234 13.4754 26.0234H21.5246C23.0077 26.0234 24.2114 24.841 24.2114 23.3868ZM16.8084 21.8487V20.0053C16.5505 19.7881 16.3878 19.467 16.3878 19.1077C16.3878 18.4543 16.9287 17.9241 17.5945 17.9241C18.2598 17.9241 18.8012 18.4543 18.8012 19.1077C18.8012 19.467 18.6373 19.7881 18.3801 20.0053V21.8487C18.3801 22.2743 18.0277 22.6195 17.5945 22.6195C17.1608 22.6195 16.8084 22.2743 16.8084 21.8487ZM14.5661 14.1862V12.3123C14.5661 10.7231 15.8805 9.4339 17.5 9.4339C19.1195 9.4339 20.4339 10.7231 20.4339 12.3123V14.1862H14.5661Z" fill="#3F77A5"/>
</svg>
