<svg width="35" height="36" viewBox="0 0 35 36" fill="none" xmlns="http://www.w3.org/2000/svg">
<path d="M24.2577 12.6728L13.0077 7.64716C12.6842 7.50238 12.3156 7.50238 11.9921 7.64716L0.742183 12.6728C0.291136 12.874 0 13.3243 0 13.8206C0 21.1688 3.40757 28.2741 9.11554 32.8267L11.7229 34.907C11.9506 35.0886 12.2253 35.1794 12.4999 35.1794C12.7746 35.1794 13.0492 35.0886 13.2769 34.907L15.8843 32.8267C21.5917 28.2741 24.9998 21.1688 24.9998 13.8206C24.9998 13.3243 24.7093 12.874 24.2577 12.6728ZM17.3217 16.9803L13.5717 23.2623C13.3739 23.5936 13.0346 23.8157 12.6525 23.8629C12.6019 23.869 12.5506 23.8721 12.4999 23.8721C12.1703 23.8721 11.8517 23.7414 11.6161 23.504L9.11615 20.9912C8.62788 20.5004 8.62788 19.7054 9.11615 19.2146C9.60443 18.7238 10.3954 18.7238 10.8837 19.2146L12.2515 20.5894L15.1781 15.6871C15.5334 15.0914 16.3006 14.8994 16.8932 15.2564C17.4852 15.6135 17.6769 16.3852 17.3217 16.9803Z" fill="#3F77A5"/>
<path d="M34.3713 13.0671L33.728 12.6965C33.7951 12.2278 33.8293 11.7634 33.8293 11.3076C33.8293 10.8518 33.7951 10.3874 33.728 9.91871L34.3713 9.54817C34.6606 9.38192 34.8718 9.10646 34.9572 8.78316C35.0439 8.45924 34.9975 8.11508 34.8303 7.82552L32.3071 3.47351C31.9629 2.87782 31.2072 2.67292 30.6054 3.01586L29.9499 3.39315C29.209 2.81525 28.3887 2.34164 27.5232 1.99074V1.2564C27.5232 0.562559 26.9641 0 26.2732 0H21.2268C20.5359 0 19.9768 0.562559 19.9768 1.2564V1.99074C19.1114 2.34103 18.2917 2.81464 17.5501 3.39315L16.8934 3.01586C16.2971 2.67292 15.5396 2.87782 15.1923 3.47351L13.4509 6.47779C13.4723 6.48668 13.4951 6.48967 13.5163 6.49918L19.2902 9.0787C20.1095 7.42715 21.7892 6.28201 23.75 6.28201C26.5115 6.28201 28.75 8.53202 28.75 11.3076C28.75 13.1977 27.6996 14.8243 26.1652 15.6824C25.9865 18.0605 25.4842 20.3958 24.6708 22.6152H26.25C26.9336 22.6152 27.4902 22.0637 27.5 21.3766L27.511 20.6294C28.3813 20.2785 29.2053 19.8031 29.9499 19.2221L30.6054 19.5994C31.2072 19.9448 31.9629 19.738 32.3071 19.1417L34.8303 14.7897C34.9975 14.5002 35.0439 14.156 34.9572 13.8321C34.8718 13.5088 34.6606 13.2333 34.3713 13.0671Z" fill="#3F77A5"/>
</svg>
