<svg width="38" height="38" viewBox="0 0 38 38" fill="none" xmlns="http://www.w3.org/2000/svg">
<path d="M22.8845 18.998C22.8845 21.1372 21.144 22.8775 19.0044 22.8775C16.8649 22.8775 15.1243 21.1372 15.1243 18.998C15.1243 16.8589 16.8649 15.1186 19.0044 15.1186C21.144 15.1186 22.8845 16.8589 22.8845 18.998ZM17.5941 3.25049C17.7648 3.25049 17.9355 3.20225 18.0839 3.10763V5.26164C18.0839 5.76999 18.4959 6.18001 19.0024 6.18001C19.509 6.18001 19.921 5.76814 19.921 5.26164V3.10763C20.2754 3.33213 20.7504 3.28945 21.0603 2.98148C21.4203 2.6234 21.4203 2.04083 21.0622 1.68091L19.6519 0.269018C19.4793 0.0964773 19.2455 0 19.0005 0C18.7556 0 18.5218 0.0964726 18.3492 0.269018L16.9389 1.68091C16.5808 2.04084 16.5808 2.62156 16.9408 2.98148C17.1208 3.16144 17.3546 3.2505 17.5903 3.2505L17.5941 3.25049ZM5.2635 19.9185C5.77194 19.9185 6.18204 19.5066 6.18204 19.0001C6.18204 18.4936 5.77009 18.0818 5.2635 18.0818H3.10911C3.33365 17.7274 3.29096 17.2524 2.98108 16.9426C2.62109 16.5827 2.04027 16.5827 1.68028 16.9426L0.269991 18.3527C-0.089997 18.7126 -0.089997 19.2933 0.269991 19.6532L1.68028 21.0633C1.86028 21.2432 2.09408 21.3323 2.32975 21.3323C2.56542 21.3323 2.80108 21.2432 2.97922 21.0633C3.28911 20.7535 3.32994 20.2785 3.10726 19.9242H5.26165L5.2635 19.9185ZM19.9227 34.8924V32.7365C19.9227 32.2282 19.5107 31.8181 19.0042 31.8181C18.4976 31.8181 18.0856 32.23 18.0856 32.7365V34.8924C17.7312 34.6679 17.2543 34.7105 16.9463 35.0204C16.5863 35.3803 16.5863 35.961 16.9463 36.3209L18.3566 37.731C18.5292 37.9035 18.763 38 19.0061 38C19.251 38 19.4848 37.9035 19.6555 37.731L21.0658 36.3209C21.4258 35.961 21.4258 35.3803 21.0658 35.0204C20.7559 34.7105 20.2809 34.6697 19.9265 34.8924H19.9227ZM37.7328 18.3507L36.3225 16.9406C35.9625 16.5807 35.3817 16.5807 35.0217 16.9406C34.7118 17.2505 34.671 17.7254 34.8937 18.0798H32.7393C32.2308 18.0798 31.8207 18.4916 31.8207 18.9981C31.8207 19.5046 32.2327 19.9165 32.7393 19.9165H34.8937C34.6691 20.2709 34.7118 20.7458 35.0217 21.0556C35.2017 21.2356 35.4355 21.3247 35.6712 21.3247C35.9068 21.3247 36.1425 21.2356 36.3206 21.0556L37.7309 19.6456C37.9035 19.4731 38 19.2393 38 18.9962C38 18.7513 37.9035 18.5176 37.7309 18.3469L37.7328 18.3507ZM33.2812 29.6978V32.3601C33.2812 32.8685 32.8692 33.2785 32.3626 33.2785H29.6998C29.1914 33.2785 28.7813 32.8666 28.7813 32.3601C28.7813 31.8537 29.1932 31.4418 29.6998 31.4418H30.1433L26.3913 27.6886L26.0907 27.9891C25.8643 28.2136 25.5395 28.3064 25.2278 28.234L23.8509 27.9075L21.871 28.7275L21.1287 29.9335C20.9617 30.2044 20.6648 30.3713 20.3457 30.3713H17.6588C17.3396 30.3713 17.0427 30.2062 16.8757 29.9335L16.1335 28.7275L14.1554 27.9075L12.7767 28.234C12.4668 28.3082 12.1402 28.2155 11.9157 27.9891L11.6169 27.6904L7.86489 31.4418H8.30838C8.81681 31.4418 9.22691 31.8537 9.22691 32.3601C9.22691 32.8666 8.81496 33.2785 8.30838 33.2785H5.64556C5.13712 33.2785 4.72703 32.8666 4.72703 32.3601V29.6978C4.72703 29.1895 5.13897 28.7794 5.64556 28.7794C6.15214 28.7794 6.56409 29.1913 6.56409 29.6978V30.1412L10.3161 26.3898L10.0155 26.0911C9.78913 25.8648 9.69635 25.5382 9.77058 25.2284L10.099 23.85L9.28068 21.8704L8.07636 21.1301C7.80359 20.9631 7.63843 20.6663 7.63843 20.3472V17.6608C7.63843 17.3416 7.80359 17.0448 8.07636 16.8778L9.28253 16.1357L10.1009 14.1561L9.77243 12.7795C9.69821 12.4697 9.79099 12.1413 10.0174 11.9168L10.318 11.6163L6.56595 7.86489V8.3083C6.56595 8.81664 6.154 9.22667 5.64741 9.22667C5.14083 9.22667 4.72888 8.81479 4.72888 8.3083V5.64595C4.72888 5.1376 5.14083 4.72758 5.64741 4.72758H8.31024C8.81867 4.72758 9.22877 5.13945 9.22877 5.64595C9.22877 6.15244 8.81682 6.56432 8.31024 6.56432H7.86675L11.6188 10.3157L11.9175 10.017C12.1439 9.79064 12.4687 9.69973 12.7804 9.77209L14.1591 10.0986L16.1372 9.27857L16.8794 8.07261C17.0465 7.80174 17.3433 7.63476 17.6625 7.63476H20.3494C20.6686 7.63476 20.9655 7.79988 21.1325 8.07261L21.8747 9.27857L23.8547 10.0986L25.2315 9.77209C25.5414 9.69788 25.868 9.79064 26.0944 10.017L26.395 10.3175L30.147 6.56432H29.7035C29.1951 6.56432 28.785 6.15244 28.785 5.64595C28.785 5.13946 29.1969 4.72758 29.7035 4.72758H32.3663C32.8748 4.72758 33.2849 5.13945 33.2849 5.64595V8.3083C33.2849 8.81664 32.8729 9.22667 32.3663 9.22667C31.8598 9.22667 31.4478 8.81479 31.4478 8.3083V7.86674L27.6958 11.62L27.9964 11.9205C28.2228 12.1469 28.3155 12.4734 28.2413 12.7832L27.9129 14.158L28.7331 16.1376L29.9392 16.8797C30.2102 17.0467 30.3772 17.3435 30.3772 17.6626V20.349C30.3772 20.6682 30.212 20.965 29.9392 21.132L28.7331 21.8722L27.9129 23.8518L28.2413 25.2303C28.3155 25.5401 28.2228 25.8685 27.9964 26.093L27.6976 26.3917L31.4478 30.1431V29.7015C31.4478 29.1932 31.8598 28.7831 32.3663 28.7831C32.8729 28.7831 33.2849 29.195 33.2849 29.7015L33.2812 29.6978ZM24.7229 19.0018C24.7229 15.8497 22.1566 13.2839 19.0039 13.2839C15.8512 13.2839 13.2849 15.8497 13.2849 19.0018C13.2849 22.154 15.8512 24.7198 19.0039 24.7198C22.1566 24.7198 24.7229 22.154 24.7229 19.0018Z" fill="#3F77A5"/>
</svg>
