<svg width="35" height="35" viewBox="0 0 35 35" fill="none" xmlns="http://www.w3.org/2000/svg">
<path d="M17.4989 28.2619C16.2855 28.2619 15.1166 28.0585 14.028 27.6876V24.3481C14.028 24.0474 13.8007 23.7841 13.4999 23.7654C13.1701 23.7432 12.8966 24.0046 12.8966 24.3294V27.2279C12.0661 26.8331 11.2919 26.3341 10.5947 25.7496V23.5586C10.5947 21.653 12.2831 20.1012 14.3595 20.1012H20.6367C22.7131 20.1012 24.4016 21.653 24.4016 23.5586V25.7513C23.7043 26.3358 22.9301 26.8349 22.0996 27.2296V24.3499C22.0996 24.0491 21.8723 23.7859 21.5715 23.7671C21.2417 23.7449 20.9683 24.0064 20.9683 24.3311V27.6911C19.8797 28.0637 18.7107 28.2654 17.4974 28.2654L17.4989 28.2619ZM30.9605 18.0638C31.2169 18.9593 32.0645 19.607 33.0506 19.554C34.0811 19.4993 34.9236 18.6688 34.9937 17.6382C35.074 16.4401 34.1221 15.4404 32.9395 15.4404C31.9996 15.4404 31.2066 16.0727 30.9605 16.9324H29.9454C29.6378 16.9324 29.39 17.1836 29.39 17.4912V17.4964V17.5015C29.39 17.8091 29.6361 18.0603 29.9454 18.0603H30.9605V18.0638ZM25.533 24.6524V23.5569C25.533 21.0275 23.337 18.9699 20.6383 18.9699H14.3611C11.661 18.9699 9.46647 21.0276 9.46647 23.5569V24.6506C7.75066 22.7246 6.71502 20.1796 6.74066 17.3975C6.79535 11.5527 11.5684 6.7859 17.4133 6.73996C23.386 6.69381 28.2619 11.5373 28.2619 17.5003C28.2619 20.2433 27.2296 22.7505 25.5344 24.6528L25.533 24.6524ZM21.4605 13.8684C21.5511 11.5954 19.7824 9.64188 17.5077 9.63677C15.3151 9.63164 13.531 11.4142 13.531 13.6035C13.531 14.7434 13.8625 15.962 14.4196 16.8644C15.1545 18.0573 16.2191 18.6879 17.4975 18.6879C19.9823 18.6879 21.3648 16.2508 21.4588 13.8665L21.4605 13.8684ZM25.8989 9.09157L25.9075 9.10012C26.1262 9.31888 26.48 9.31888 26.6987 9.10012L29.0434 6.75699C29.6997 7.23896 30.4789 7.48161 31.2582 7.48161C32.217 7.48161 33.1757 7.11758 33.9054 6.38781C35.3649 4.92829 35.3649 2.55441 33.9054 1.09646C32.446 -0.361347 30.0722 -0.361347 28.6144 1.09646C27.9086 1.80231 27.5189 2.74228 27.5189 3.74209C27.5189 4.5505 27.7736 5.31957 28.2453 5.95874L25.9023 8.30187C25.6835 8.52063 25.6835 8.8744 25.9023 9.09316L25.8989 9.09157ZM17.4995 10.7681C15.9358 10.7681 14.6626 12.0414 14.6626 13.6052C14.6626 15.1348 15.4333 17.56 17.4995 17.56C19.5656 17.56 20.3364 15.1331 20.3364 13.6052C20.3364 12.0414 19.0632 10.7681 17.4995 10.7681ZM18.0634 30.9622V29.9454C18.0634 29.6377 17.8122 29.3899 17.5046 29.3899H17.4995H17.4944C17.1868 29.3899 16.9356 29.636 16.9356 29.9454V30.9622C16.0384 31.2186 15.3907 32.0663 15.4454 33.0559C15.5018 34.0864 16.334 34.929 17.3645 34.9956C18.5608 35.0725 19.5605 34.1223 19.5605 32.9414C19.5605 32.0031 18.9282 31.2101 18.0669 30.964L18.0634 30.9622ZM9.10007 25.9085L9.09152 25.8999C8.87277 25.6812 8.51902 25.6812 8.30027 25.8999L5.95727 28.2431C4.49267 27.1664 2.41803 27.2894 1.09715 28.6122C0.389632 29.3181 0 30.258 0 31.2578C0 32.2577 0.389641 33.1976 1.09715 33.9035C1.82518 34.6315 2.78391 34.9956 3.74092 34.9956C4.69965 34.9956 5.65837 34.6315 6.38811 33.9018C7.71083 32.579 7.8339 30.5042 6.75725 29.0396L9.10025 26.6965C9.319 26.4777 9.319 26.124 9.10025 25.9052L9.10007 25.9085ZM29.0419 28.243L26.6972 25.8999C26.4785 25.6811 26.1247 25.6828 25.906 25.8999C25.9025 25.9033 25.9008 25.905 25.8974 25.9084C25.6787 26.1272 25.6787 26.481 25.8974 26.6997L28.2404 29.0429C27.7653 29.6872 27.509 30.4648 27.5141 31.2817C27.5192 32.2098 27.873 33.1104 28.5019 33.7923C29.2418 34.5956 30.2484 34.9972 31.255 34.9972C32.2137 34.9972 33.1708 34.6332 33.9005 33.9051C35.3599 32.4456 35.3599 30.0717 33.9005 28.612C32.5761 27.291 30.5014 27.1679 29.0386 28.2429L29.0419 28.243ZM3.74251 7.48146C4.52178 7.48146 5.30279 7.24049 5.95903 6.75684L8.30203 9.09997C8.52078 9.31873 8.87454 9.31873 9.09328 9.09997C9.0967 9.09656 9.09841 9.09485 9.10183 9.09143C9.32058 8.87267 9.32058 8.51889 9.10183 8.30013L6.75883 5.957C7.83546 4.49403 7.71244 2.41757 6.38969 1.09486C4.93026 -0.362949 2.5565 -0.362949 1.09864 1.09486C0.391125 1.80071 0.00149284 2.74068 0.00149284 3.74049C0.00149284 4.74031 0.391134 5.68027 1.09864 6.38612C1.82667 7.1142 2.7854 7.47992 3.74412 7.47992L3.74251 7.48146ZM1.94809 19.5561C2.93586 19.6074 3.78351 18.9596 4.03813 18.0658H5.05495C5.36256 18.0658 5.61035 17.8146 5.61035 17.507V17.5019V17.4967C5.61035 17.1891 5.36426 16.9379 5.05495 16.9379H4.03813C3.79204 16.0782 2.99737 15.4459 2.05917 15.4459C0.876577 15.4459 -0.075323 16.4457 0.00500088 17.6437C0.0733593 18.6743 0.91757 19.5048 1.94809 19.5595V19.5561ZM16.934 4.03776V5.05464C16.934 5.36226 17.1852 5.61007 17.4928 5.61007H17.4979H17.5031C17.8107 5.61007 18.0619 5.36396 18.0619 5.05464V4.03776C18.9591 3.7814 19.6068 2.93372 19.5521 1.94414C19.4957 0.913568 18.6634 0.0710393 17.6329 0.00436151C16.4366 -0.0725455 15.4369 0.877692 15.4369 2.05864C15.4369 2.9969 16.0692 3.7899 16.9306 4.03601L16.934 4.03776Z" fill="#3F77A5"/>
</svg>
