<svg width="35" height="35" viewBox="0 0 35 35" fill="none" xmlns="http://www.w3.org/2000/svg">
<path d="M28.1247 21.1626C24.3309 21.1626 21.2495 24.2312 21.2495 28.0095C21.2495 31.7878 24.3307 34.8564 28.1247 34.8564C31.9186 34.8564 34.9999 31.7878 34.9999 28.0095C34.9999 24.2312 31.9186 21.1626 28.1247 21.1626ZM30.4435 27.2064L27.9435 29.6961C27.8185 29.8144 27.6622 29.8766 27.4997 29.8766C27.3372 29.8766 27.1809 29.8144 27.0559 29.6961L25.8059 28.4513C25.5622 28.2085 25.5622 27.8102 25.8059 27.5674C26.0497 27.3246 26.4497 27.3246 26.6935 27.5674L27.4997 28.3765L29.5559 26.3225C29.7997 26.0798 30.1997 26.0798 30.4435 26.3225C30.6872 26.5653 30.6872 26.9637 30.4435 27.2064Z" fill="#3F77A5"/>
<path d="M33.7501 14.9383H32.2876C31.9126 12.7225 31.0376 10.6062 29.7251 8.77619L30.7564 7.74295C31.2439 7.25743 31.2439 6.4732 30.7564 5.98772L28.9939 4.22625C28.5064 3.74073 27.7127 3.74073 27.2251 4.22625L26.1876 5.25324C24.3501 3.94616 22.2251 3.07473 20 2.70131V1.24485C20 0.560164 19.4376 0 18.75 0H16.25C15.5625 0 15 0.560164 15 1.24485V2.70131C12.7751 3.07477 10.6565 3.94616 8.81246 5.25324L7.77494 4.22625C7.28742 3.74073 6.49995 3.74073 6.01247 4.22625L4.24371 5.98772C4.00621 6.21802 3.87496 6.53546 3.87496 6.86533C3.87496 7.19521 4.00621 7.51266 4.24371 7.74295L5.27495 8.77619C3.96247 10.6124 3.08743 12.7224 2.71247 14.9383H1.25C0.562479 14.9383 0 15.4985 0 16.1832V18.6729C0 19.3576 0.562479 19.9177 1.25 19.9177H2.71247C3.08747 22.1336 3.96247 24.2434 5.27495 26.0799L4.24371 27.1131C3.75619 27.5986 3.75619 28.3828 4.24371 28.8683L6.01247 30.6298C6.48123 31.1028 7.30622 31.1028 7.77494 30.6298L8.81246 29.6028C10.6562 30.9099 12.7749 31.7813 15 32.1547V33.6112C15 34.2959 15.5625 34.856 16.25 34.856H18.75C19.4376 34.856 20 34.2959 20 33.6112V32.1547C20.3438 32.0987 20.6876 32.0303 21.025 31.9431C20.425 30.8725 20.0626 29.6464 20.0126 28.3455C19.2063 28.5322 18.3626 28.6318 17.5001 28.6318C11.3001 28.6318 6.25011 23.609 6.25011 17.4281C6.25011 11.2473 11.3001 6.22446 17.5001 6.22446C23.7065 6.22446 28.7501 11.2473 28.7501 17.4281C28.7501 18.2871 28.6501 19.1274 28.4626 19.9303C29.7688 19.9801 31.0001 20.3411 32.075 20.9386C32.1625 20.6025 32.2313 20.2602 32.2875 19.9178H33.75C34.4375 19.9178 35 19.3576 35 18.673V16.1832C35 15.4986 34.4376 14.9383 33.7501 14.9383Z" fill="#3F77A5"/>
<path d="M27.5002 17.4283C27.5002 11.9386 23.0126 7.46948 17.5002 7.46948C11.9878 7.46948 7.50024 11.9386 7.50024 17.4283C7.50024 22.918 11.9878 27.3871 17.5002 27.3871C18.3877 27.3871 19.244 27.2689 20.0627 27.051C20.4939 23.3538 23.4502 20.4097 27.1627 19.9803C27.3814 19.1649 27.5002 18.3121 27.5002 17.4283ZM16.5626 16.8059H18.4376C19.9876 16.8059 21.2501 18.0632 21.2501 19.6068C21.2501 21.1504 19.9876 22.4077 18.4376 22.4077H18.1251V23.0301C18.1251 23.3724 17.8439 23.6525 17.5001 23.6525C17.1564 23.6525 16.8751 23.3724 16.8751 23.0301V22.4077H14.3751C14.0314 22.4077 13.7501 22.1276 13.7501 21.7853C13.7501 21.4429 14.0314 21.1628 14.3751 21.1628H18.4375C19.3 21.1628 20 20.4657 20 19.6068C20 18.7479 19.3 18.0507 18.4375 18.0507H16.5625C15.0125 18.0507 13.75 16.7935 13.75 15.2498C13.75 13.7062 15.0125 12.4489 16.5625 12.4489H16.875V11.8265C16.875 11.4842 17.1563 11.2041 17.5 11.2041C17.8438 11.2041 18.125 11.4842 18.125 11.8265V12.4489H20.625C20.9688 12.4489 21.25 12.729 21.25 13.0714C21.25 13.4137 20.9688 13.6938 20.625 13.6938H16.5626C15.7001 13.6938 15.0001 14.3909 15.0001 15.2498C15.0001 16.1088 15.7001 16.8059 16.5626 16.8059Z" fill="#3F77A5"/>
</svg>
