<svg width="40" height="40" viewBox="0 0 40 40" fill="none" xmlns="http://www.w3.org/2000/svg">
<path d="M18.5201 3.42157C18.6998 3.42157 18.8795 3.37079 19.0357 3.27119V5.53857C19.0357 6.07367 19.4693 6.50528 20.0026 6.50528C20.5358 6.50528 20.9694 6.07172 20.9694 5.53857V3.27119C21.3425 3.5075 21.8426 3.46258 22.1687 3.1384C22.5477 2.76148 22.5477 2.14824 22.1707 1.76938L20.6862 0.283177C20.5045 0.101555 20.2584 0 20.0006 0C19.7427 0 19.4966 0.10155 19.315 0.283177L17.8305 1.76938C17.4535 2.14825 17.4535 2.75953 17.8324 3.1384C18.0219 3.32783 18.268 3.42157 18.5161 3.42157L18.5201 3.42157ZM5.54053 20.9668C6.07572 20.9668 6.50741 20.5333 6.50741 20.0001C6.50741 19.467 6.07378 19.0334 5.54053 19.0334H3.27275C3.5091 18.6604 3.46417 18.1605 3.13798 17.8344C2.75904 17.4555 2.14765 17.4555 1.76872 17.8344L0.284201 19.3186C-0.0947337 19.6975 -0.0947337 20.3088 0.284201 20.6876L1.76872 22.1719C1.95819 22.3613 2.2043 22.4551 2.45237 22.4551C2.70045 22.4551 2.94851 22.3613 3.13603 22.1719C3.46222 21.8457 3.5052 21.3458 3.2708 20.9728H5.53858L5.54053 20.9668ZM20.9712 36.7288V34.4595C20.9712 33.9244 20.5376 33.4928 20.0044 33.4928C19.4711 33.4928 19.0375 33.9263 19.0375 34.4595V36.7288C18.6644 36.4925 18.1624 36.5374 17.8382 36.8636C17.4593 37.2424 17.4593 37.8537 17.8382 38.2326L19.3227 39.7168C19.5044 39.8984 19.7505 40 20.0064 40C20.2642 40 20.5103 39.8984 20.69 39.7168L22.1745 38.2326C22.5535 37.8537 22.5535 37.2424 22.1745 36.8636C21.8483 36.5374 21.3483 36.4944 20.9752 36.7288H20.9712ZM39.7187 19.3165L38.2342 17.8323C37.8553 17.4534 37.2439 17.4534 36.865 17.8323C36.5388 18.1584 36.4958 18.6583 36.7302 19.0313H34.4624C33.9272 19.0313 33.4955 19.4649 33.4955 19.998C33.4955 20.5312 33.9291 20.9647 34.4624 20.9647H36.7302C36.4938 21.3378 36.5388 21.8377 36.865 22.1638C37.0544 22.3533 37.3005 22.447 37.5486 22.447C37.7967 22.447 38.0447 22.3533 38.2323 22.1638L39.7168 20.6796C39.8984 20.498 40 20.2519 40 19.996C40 19.7383 39.8984 19.4922 39.7168 19.3125L39.7187 19.3165ZM35.0328 31.2608V34.0633C35.0328 34.5984 34.5992 35.03 34.0659 35.03H31.263C30.7278 35.03 30.2961 34.5965 30.2961 34.0633C30.2961 33.5302 30.7297 33.0966 31.263 33.0966H31.7298L27.7803 29.1458L27.4639 29.4622C27.2256 29.6985 26.8837 29.7962 26.5556 29.72L25.1063 29.3763L23.0221 30.2395L22.2408 31.5089C22.065 31.7941 21.7525 31.9698 21.4165 31.9698H18.5882C18.2522 31.9698 17.9397 31.796 17.7639 31.5089L16.9826 30.2395L14.9004 29.3763L13.4491 29.72C13.1229 29.7981 12.7792 29.7005 12.5428 29.4622L12.2283 29.1478L8.27883 33.0966H8.74566C9.28086 33.0966 9.71254 33.5302 9.71254 34.0633C9.71254 34.5965 9.27891 35.03 8.74566 35.03H5.94269C5.4075 35.03 4.97582 34.5965 4.97582 34.0633V31.2608C4.97582 30.7257 5.40945 30.2941 5.94269 30.2941C6.47593 30.2941 6.90957 30.7277 6.90957 31.2608V31.7276L10.8591 27.7788L10.5426 27.4644C10.3044 27.2261 10.2067 26.8824 10.2848 26.5562L10.6306 25.1052L9.76913 23.0214L8.50143 22.2422C8.2143 22.0664 8.04046 21.754 8.04046 21.4181V18.5903C8.04046 18.2544 8.2143 17.9419 8.50143 17.7662L9.77108 16.985L10.6325 14.9012L10.2868 13.4521C10.2086 13.126 10.3063 12.7803 10.5446 12.544L10.861 12.2276L6.91152 8.27883V8.74558C6.91152 9.28067 6.47789 9.71228 5.94465 9.71228C5.41141 9.71228 4.97777 9.27873 4.97777 8.74558V5.9431C4.97777 5.408 5.4114 4.9764 5.94465 4.9764H8.74762C9.28281 4.9764 9.71449 5.40995 9.71449 5.9431C9.71449 6.47625 9.28087 6.90981 8.74762 6.90981H8.28079L12.2303 10.8586L12.5448 10.5442C12.7831 10.3059 13.1249 10.2102 13.453 10.2864L14.9043 10.6301L16.9865 9.76691L17.7678 8.49749C17.9436 8.21236 18.2562 8.03659 18.5921 8.03659H21.4204C21.7564 8.03659 22.0689 8.2104 22.2447 8.49749L23.026 9.76691L25.1102 10.6301L26.5595 10.2864C26.8857 10.2083 27.2294 10.3059 27.4678 10.5442L27.7842 10.8606L31.7337 6.90981H31.2669C30.7317 6.90981 30.3 6.47625 30.3 5.9431C30.3 5.40995 30.7336 4.9764 31.2669 4.9764H34.0698C34.605 4.9764 35.0367 5.40995 35.0367 5.9431V8.74558C35.0367 9.28067 34.6031 9.71228 34.0698 9.71228C33.5366 9.71228 33.103 9.27873 33.103 8.74558V8.28078L29.1534 12.2315L29.4699 12.5479C29.7082 12.7862 29.8058 13.1299 29.7277 13.456L29.382 14.9031L30.2453 16.9869L31.515 17.7681C31.8002 17.9439 31.976 18.2563 31.976 18.5922V21.42C31.976 21.7559 31.8021 22.0684 31.515 22.2442L30.2453 23.0234L29.382 25.1072L29.7277 26.5582C29.8058 26.8843 29.7082 27.23 29.4699 27.4663L29.1554 27.7807L33.103 31.7295V31.2647C33.103 30.7296 33.5366 30.298 34.0698 30.298C34.6031 30.298 35.0367 30.7316 35.0367 31.2647L35.0328 31.2608ZM26.0241 20.0019C26.0241 16.6839 23.3227 13.983 20.0041 13.983C16.6855 13.983 13.9841 16.6839 13.9841 20.0019C13.9841 23.32 16.6855 26.0209 20.0041 26.0209C23.3227 26.0209 26.0241 23.32 26.0241 20.0019Z" fill="#3F77A5"/>
<path d="M15.0012 20.1325H17.1571C17.1807 21.0793 17.446 21.9258 17.8055 22.6446H15.7539C15.2977 21.9116 15.0256 21.0526 15.0012 20.1325Z" fill="#3F77A5"/>
<path d="M20.1356 17.0821V15.1329C20.4823 15.4352 21.1851 16.1139 21.7493 17.0821H20.1356Z" fill="#3F77A5"/>
<path d="M21.8976 17.3512C22.2707 18.0623 22.5528 18.9098 22.5775 19.8634H20.1359V17.3512H21.8976Z" fill="#3F77A5"/>
<path d="M19.8675 17.082H18.2547C18.8186 16.1145 19.5208 15.4357 19.8674 15.1331L19.8675 17.082Z" fill="#3F77A5"/>
<path d="M19.8673 17.3512V19.8634H17.4258C17.4506 18.9103 17.733 18.0626 18.1065 17.3512H19.8673Z" fill="#3F77A5"/>
<path d="M17.1571 19.8634H15.0012C15.0256 18.9433 15.2974 18.0843 15.7538 17.3512H17.8055C17.446 18.07 17.1807 18.9165 17.1571 19.8634Z" fill="#3F77A5"/>
<path d="M17.4258 20.1325H19.8672V22.6446H18.1057C17.7325 21.9336 17.4505 21.0861 17.4258 20.1325Z" fill="#3F77A5"/>
<path d="M19.8672 22.914V24.8632C19.5204 24.561 18.8177 23.8823 18.2537 22.914H19.8672Z" fill="#3F77A5"/>
<path d="M20.1356 22.914H21.7482C21.1843 23.8815 20.4822 24.5604 20.1356 24.863V22.914Z" fill="#3F77A5"/>
<path d="M20.1356 22.6447V20.1325H22.5771C22.5523 21.0857 22.2699 21.9334 21.8964 22.6446L20.1356 22.6447Z" fill="#3F77A5"/>
<path d="M22.8459 20.1325H25.002C24.9776 21.0526 24.7056 21.9115 24.2493 22.6446H22.1976C22.5571 21.926 22.8225 21.0794 22.8459 20.1325Z" fill="#3F77A5"/>
<path d="M22.8459 19.8634C22.8225 18.9166 22.5571 18.07 22.1976 17.3512H24.2493C24.7055 18.0843 24.9776 18.9433 25.002 19.8634H22.8459Z" fill="#3F77A5"/>
<path d="M24.069 17.0821H22.0551C21.4987 16.0802 20.7876 15.3581 20.3885 14.9985C21.9035 15.1153 23.231 15.9108 24.069 17.0821Z" fill="#3F77A5"/>
<path d="M19.6148 14.9985C19.2157 15.3581 18.5045 16.0803 17.9482 17.0821H15.9342C16.7722 15.9108 18.0998 15.1153 19.6148 14.9985Z" fill="#3F77A5"/>
<path d="M15.9342 22.914H17.9481C18.5044 23.9158 19.2155 24.6378 19.6145 24.9975C18.0997 24.8806 16.772 24.0852 15.9342 22.914Z" fill="#3F77A5"/>
<path d="M20.3885 24.9972C20.7876 24.6376 21.4987 23.9154 22.0551 22.9137H24.0689C23.231 24.085 21.9035 24.8803 20.3885 24.9972Z" fill="#3F77A5"/>
</svg>
