<svg width="35" height="36" viewBox="0 0 35 36" fill="none" xmlns="http://www.w3.org/2000/svg">
<path d="M27.9145 7.70452C27.5307 7.66669 27.1476 7.783 26.849 8.02796C26.5504 8.27292 26.3607 8.62661 26.3213 9.01161C26.3027 9.20316 26.3219 9.3965 26.3779 9.58059C26.4338 9.76467 26.5255 9.93582 26.6475 10.0843C26.7695 10.2328 26.9194 10.3558 27.0888 10.446C27.2582 10.5363 27.4437 10.5921 27.6346 10.6104L31.2515 10.9666C31.4424 10.9853 31.6351 10.9659 31.8185 10.9098C32.002 10.8536 32.1725 10.7617 32.3205 10.6393C32.4685 10.5169 32.591 10.3664 32.6809 10.1964C32.7709 10.0264 32.8265 9.84029 32.8447 9.64869C32.8633 9.45714 32.844 9.26379 32.7881 9.07971C32.7321 8.89563 32.6405 8.72443 32.5185 8.57593C32.3966 8.42742 32.2466 8.30451 32.0772 8.21426C31.9078 8.124 31.7223 8.06817 31.5314 8.04994L27.9145 7.70452Z" fill="#3F77A5"/>
<path d="M15.331 0.131919C13.0755 0.411224 10.8423 1.13637 8.75388 2.3464C6.44133 3.68623 4.54066 5.48201 3.11325 7.55313C3.00324 7.71114 2.92544 7.88939 2.88429 8.07767C2.84314 8.26595 2.83948 8.46053 2.87348 8.65024C2.90749 8.83995 2.97851 9.02101 3.08246 9.1831C3.18642 9.34519 3.32126 9.48513 3.47924 9.59477C3.63737 9.70462 3.81559 9.78201 4.00363 9.82246C4.19168 9.86291 4.38582 9.86556 4.57491 9.8304C4.76401 9.79523 4.94433 9.72293 5.10545 9.61756C5.26657 9.51218 5.40534 9.37584 5.51374 9.21643C6.70229 7.49204 8.27245 6.00566 10.2071 4.88474C17.1959 0.83564 26.0974 3.22938 30.1323 10.2427C30.3267 10.5775 30.6456 10.8214 31.019 10.9206C31.3923 11.0198 31.7896 10.9664 32.1238 10.772C32.4575 10.5769 32.7004 10.2569 32.7993 9.88221C32.8982 9.50756 32.8449 9.10891 32.6512 8.77362C29.0339 2.48627 22.0977 -0.705942 15.331 0.131919ZM2.77954 11.0099C2.41409 10.8842 2.01385 10.9091 1.66671 11.0792C1.31958 11.2494 1.05392 11.5507 0.928038 11.9173C0.851979 12.1424 0.779225 12.3714 0.712536 12.5978C0.60412 12.9703 0.647542 13.3706 0.833259 13.711C1.01898 14.0513 1.33177 14.3037 1.70288 14.4126C2.07258 14.5218 2.47032 14.4798 2.80919 14.2956C3.14805 14.1114 3.40051 13.8 3.51132 13.4296C3.56699 13.2393 3.63145 13.0424 3.69428 12.8571C3.81575 12.4903 3.78771 12.0903 3.61628 11.7442C3.44485 11.3981 3.14423 11.1341 2.77954 11.0099ZM1.44474 16.2058C1.05974 16.21 0.691997 16.3668 0.421766 16.642C0.151536 16.9172 0.000753775 17.2885 0.00228461 17.6749C0.00294598 17.7706 -0.00317174 17.8911 0.00228461 18.0311C0.00985428 18.2233 0.0551239 18.4123 0.135538 18.587C0.215953 18.7617 0.329896 18.9187 0.47088 19.0492C0.611863 19.1796 0.777104 19.2809 0.957135 19.3472C1.13717 19.4134 1.32849 19.4435 1.52009 19.4354C1.90515 19.4201 2.26848 19.2524 2.5307 18.969C2.79292 18.6856 2.93269 18.3096 2.91948 17.9231C2.917 17.8595 2.92025 17.7616 2.91948 17.6531C2.91741 17.4609 2.87762 17.271 2.80238 17.0942C2.72713 16.9174 2.61791 16.7572 2.48095 16.6228C2.344 16.4884 2.182 16.3824 2.0042 16.3108C1.8264 16.2392 1.6363 16.2036 1.44474 16.2058Z" fill="#3F77A5"/>
<path d="M32.7802 4.29092C32.595 4.24108 32.4019 4.22837 32.2118 4.25353C32.0217 4.27869 31.8384 4.34123 31.6725 4.43755C31.5065 4.53387 31.361 4.66209 31.2445 4.81487C31.128 4.96766 31.0426 5.14201 30.9933 5.32794L29.9814 9.13037C29.9318 9.3162 29.9191 9.51003 29.9442 9.70078C29.9692 9.89153 30.0316 10.0754 30.1276 10.242C30.2236 10.4086 30.3513 10.5545 30.5036 10.6715C30.6558 10.7884 30.8295 10.8741 31.0148 10.9236C31.2 10.9734 31.3932 10.9861 31.5832 10.9609C31.7733 10.9358 31.9566 10.8732 32.1226 10.7769C32.2885 10.6806 32.434 10.5523 32.5505 10.3996C32.6671 10.2468 32.7524 10.0725 32.8017 9.88653L33.8136 6.08411C33.8633 5.89827 33.8759 5.70445 33.8509 5.51369C33.8258 5.32294 33.7635 5.13899 33.6675 4.97244C33.5715 4.80588 33.4438 4.65999 33.2915 4.54304C33.1393 4.4261 32.9655 4.34041 32.7802 4.29092Z" fill="#3F77A5"/>
<path d="M3.74847 24.1456C3.55759 24.1269 3.36492 24.1462 3.18148 24.2024C2.99805 24.2585 2.82744 24.3504 2.67946 24.4728C2.53147 24.5953 2.409 24.7458 2.31906 24.9157C2.22912 25.0857 2.17348 25.2719 2.15532 25.4635C2.13671 25.655 2.15595 25.8484 2.21191 26.0324C2.26788 26.2165 2.35946 26.3878 2.48145 26.5363C2.60344 26.6848 2.75341 26.8076 2.9228 26.8979C3.09219 26.9881 3.27767 27.044 3.46859 27.0622L7.08549 27.4079C7.27637 27.4265 7.46904 27.4072 7.65248 27.3511C7.83592 27.2949 8.00652 27.203 8.1545 27.0806C8.30249 26.9582 8.42497 26.8077 8.51491 26.6377C8.60485 26.4677 8.66048 26.2816 8.67865 26.09C8.71321 25.7049 8.59446 25.3217 8.34839 25.0242C8.10232 24.7267 7.74892 24.5389 7.36537 24.502L3.74847 24.1456Z" fill="#3F77A5"/>
<path d="M33.4801 15.6765C33.0951 15.6919 32.7317 15.8595 32.4695 16.1429C32.2073 16.4263 32.0675 16.8023 32.0807 17.1888C32.0831 17.2524 32.0799 17.3393 32.0807 17.4482C32.0814 17.6414 32.1201 17.8324 32.1948 18.0104C32.2694 18.1885 32.3783 18.35 32.5154 18.4856C32.6525 18.6211 32.815 18.7281 32.9935 18.8004C33.172 18.8726 33.363 18.9086 33.5555 18.9065C33.9405 18.9023 34.3082 18.7455 34.5784 18.4703C34.8487 18.1951 34.9995 17.8237 34.9979 17.4373C34.9973 17.3417 35.0034 17.2211 34.9979 17.0812C34.9903 16.8889 34.945 16.7 34.8646 16.5253C34.7842 16.3506 34.6702 16.1935 34.5292 16.0631C34.3883 15.9326 34.223 15.8314 34.043 15.7651C33.863 15.6988 33.6717 15.6685 33.4801 15.6765ZM33.2971 20.6996C32.9274 20.5903 32.5297 20.6324 32.1908 20.8166C31.8519 21.0008 31.5995 21.3122 31.4887 21.6826C31.433 21.8728 31.3685 22.0691 31.3057 22.2551C31.1842 22.6218 31.2123 23.0219 31.3837 23.368C31.5551 23.7141 31.856 23.978 32.2207 24.1023C32.5861 24.228 32.9863 24.203 33.3334 24.0329C33.6806 23.8628 33.9463 23.5614 34.0722 23.1949C34.1482 22.9698 34.2209 22.7408 34.2876 22.5143C34.396 22.1419 34.3526 21.7415 34.1669 21.4012C33.9811 21.0609 33.6682 20.8085 33.2971 20.6996ZM3.98519 24.1887C3.61366 24.0921 3.21914 24.1463 2.88721 24.3397C2.72104 24.4354 2.5753 24.563 2.45831 24.7152C2.34131 24.8675 2.25534 25.0414 2.20534 25.227C2.15533 25.4126 2.14226 25.6062 2.16686 25.7969C2.19147 25.9876 2.25325 26.1715 2.34873 26.3382C7.1718 34.7212 17.8923 37.6055 26.2461 32.7656C28.5586 31.4257 30.4592 29.63 31.8867 27.5588C31.9967 27.4008 32.0746 27.2226 32.1157 27.0343C32.1569 26.846 32.1606 26.6514 32.1266 26.4617C32.0925 26.272 32.0215 26.0909 31.9176 25.9288C31.8136 25.7667 31.6788 25.6268 31.5208 25.5171C31.3633 25.4068 31.1857 25.3287 30.998 25.2874C30.8104 25.2461 30.6166 25.2424 30.4275 25.2765C30.2385 25.3107 30.058 25.3819 29.8964 25.4863C29.7349 25.5906 29.5955 25.7259 29.4863 25.8844C28.2978 27.6089 26.7276 29.106 24.7929 30.227C17.8042 34.2761 8.91342 31.8823 4.87848 24.869C4.78169 24.702 4.65293 24.5558 4.49958 24.439C4.34623 24.3222 4.17151 24.2373 3.98519 24.1887Z" fill="#3F77A5"/>
<path d="M3.98574 24.1886C3.80055 24.1388 3.60741 24.1261 3.41732 24.1512C3.22724 24.1764 3.04393 24.239 2.87796 24.3353C2.71198 24.4316 2.56656 24.5598 2.45002 24.7126C2.33349 24.8654 2.24814 25.0397 2.19882 25.2256L1.18695 29.0281C1.13729 29.2139 1.12466 29.4077 1.14974 29.5985C1.17482 29.7892 1.23713 29.9731 1.33312 30.1397C1.4291 30.3063 1.55687 30.4522 1.70912 30.5692C1.86137 30.6861 2.03508 30.7718 2.22035 30.8213C2.40554 30.8711 2.59873 30.8838 2.78881 30.8586C2.9789 30.8335 3.16216 30.7709 3.32814 30.6746C3.49411 30.5783 3.63953 30.45 3.75607 30.2973C3.87261 30.1445 3.958 29.9702 4.00731 29.7842L5.01914 25.9818C5.0688 25.796 5.08147 25.6021 5.0564 25.4114C5.03132 25.2207 4.969 25.0367 4.87302 24.8702C4.77703 24.7036 4.64926 24.5576 4.49702 24.4407C4.34477 24.3238 4.17102 24.2381 3.98574 24.1886Z" fill="#3F77A5"/>
<path d="M17.5051 7.31543C11.8849 7.31543 7.28955 11.9161 7.28955 17.5561C7.28955 23.1961 11.8849 27.7967 17.5051 27.7967C23.1254 27.7967 27.7099 23.1961 27.7099 17.5561C27.7099 11.9161 23.1254 7.31543 17.5051 7.31543ZM17.5051 10.2429C21.5492 10.2429 24.7927 13.4978 24.7927 17.5561C24.7927 21.6144 21.5492 24.8693 17.5051 24.8693C13.461 24.8693 10.2068 21.6144 10.2068 17.5561C10.2068 13.4978 13.461 10.2429 17.5051 10.2429Z" fill="#3F77A5"/>
<path d="M17.505 13.1704C17.3134 13.1697 17.1236 13.2068 16.9463 13.2797C16.7691 13.3526 16.6079 13.4598 16.4719 13.5953C16.336 13.7307 16.228 13.8916 16.154 14.069C16.0801 14.2463 16.0417 14.4365 16.041 14.6287V17.5562C16.0417 17.7484 16.0801 17.9386 16.154 18.116C16.228 18.2933 16.336 18.4543 16.4719 18.5897C16.6079 18.7252 16.7691 18.8323 16.9463 18.9052C17.1236 18.9781 17.3134 19.0152 17.505 19.0145C17.89 19.0132 18.2588 18.8591 18.5311 18.5859C18.8033 18.3127 18.9569 17.9425 18.9582 17.5562V14.6287C18.9569 14.2424 18.8033 13.8722 18.5311 13.599C18.2588 13.3258 17.89 13.1717 17.505 13.1704Z" fill="#3F77A5"/>
<path d="M19.5638 19.6251L17.5015 17.5557L19.5638 19.6251Z" fill="#3F77A5"/>
<path d="M16.4724 16.5195C16.3363 16.6555 16.2283 16.8171 16.1546 16.9951C16.0809 17.173 16.043 17.3638 16.043 17.5565C16.043 17.7492 16.0809 17.94 16.1546 18.118C16.2283 18.296 16.3363 18.4576 16.4724 18.5936L18.5284 20.6568C18.6639 20.7934 18.825 20.9017 19.0023 20.9756C19.1796 21.0496 19.3698 21.0876 19.5618 21.0876C19.7538 21.0876 19.944 21.0496 20.1213 20.9756C20.2987 20.9017 20.4597 20.7934 20.5952 20.6568C20.8668 20.3826 21.0191 20.0117 21.0191 19.6252C21.0191 19.2386 20.8668 18.8677 20.5952 18.5936L18.5284 16.5195C18.2552 16.247 17.8856 16.094 17.5004 16.094C17.1152 16.094 16.7456 16.247 16.4724 16.5195Z" fill="#3F77A5"/>
</svg>
