<svg width="35" height="34" viewBox="0 0 35 34" fill="none" xmlns="http://www.w3.org/2000/svg">
<path d="M12.9725 30.1907C12.5119 30.1907 12.136 29.8184 12.136 29.3587V28.6111C12.136 28.1529 12.5104 27.7791 12.9725 27.7791H22.0276C22.4882 27.7791 22.8641 28.1514 22.8641 28.6111V29.3587C22.8641 29.8169 22.4897 30.1907 22.0276 30.1907H12.9725ZM20.5533 34C21.014 34 21.3898 33.6276 21.3898 33.168V32.4204C21.3898 31.9622 21.0155 31.5884 20.5533 31.5884H14.4467C13.9861 31.5884 13.6103 31.9607 13.6103 32.4204V33.168C13.6103 33.6262 13.9846 34 14.4467 34H20.5533ZM21.8563 13.7717L23.3859 14.0263V14.9324L21.8563 15.187C21.6092 15.2292 21.403 15.4124 21.3343 15.6481C21.2568 15.8997 21.1573 16.1339 21.0433 16.3477L21.0418 16.3492C20.9219 16.5732 20.938 16.8408 21.0842 17.0474L21.9835 18.2997L21.3386 18.9412L20.0795 18.0481C19.8733 17.9027 19.6043 17.8867 19.3776 18.0059C19.1524 18.1267 18.9155 18.2241 18.6698 18.2998C18.4242 18.3754 18.2472 18.5761 18.2077 18.8219L17.9533 20.3361H17.0422L16.7878 18.8205C16.7454 18.5732 16.5684 18.3739 16.3227 18.2983C16.08 18.2241 15.8431 18.1267 15.6164 18.0059C15.3897 17.8852 15.1207 17.9012 14.9145 18.0481L13.6569 18.9412L13.0119 18.2997L13.9113 17.0459C14.0575 16.8394 14.0736 16.5717 13.9522 16.3492C13.8338 16.1266 13.7358 15.891 13.6612 15.6481C13.5866 15.4052 13.3848 15.2277 13.1362 15.1855L11.6081 14.931V14.0248L13.1407 13.7703C13.3878 13.7281 13.5881 13.5535 13.6656 13.3092C13.7388 13.0692 13.8367 12.835 13.9566 12.6139C14.078 12.3884 14.0619 12.1208 13.9157 11.9157L13.0119 10.659L13.6569 10.0175L14.9203 10.915C15.1236 11.0604 15.4 11.0779 15.6237 10.9586C15.8401 10.8422 16.0756 10.7462 16.3213 10.6721C16.5655 10.5964 16.7439 10.3972 16.7863 10.1484L17.0422 8.62261H17.9533L18.2092 10.1499C18.2516 10.3972 18.4285 10.5964 18.6742 10.6721C18.9213 10.7477 19.1553 10.8437 19.3718 10.9586C19.5984 11.0793 19.8675 11.0633 20.0737 10.9164L21.3386 10.0175L21.9835 10.659L21.0812 11.9143C20.935 12.1164 20.9175 12.3899 21.0374 12.6139C21.1602 12.8423 21.2582 13.075 21.3298 13.3092C21.4044 13.5521 21.6048 13.7281 21.8548 13.7703L21.8563 13.7717ZM20.3896 14.4786C20.3896 12.8932 19.0939 11.6044 17.4999 11.6044C15.9059 11.6044 14.6103 12.8931 14.6103 14.4786C14.6103 16.0641 15.9059 17.3528 17.4999 17.3528C19.0939 17.3528 20.3896 16.0641 20.3896 14.4786ZM17.4999 12.339C16.314 12.339 15.3488 13.299 15.3488 14.4786C15.3488 15.6583 16.314 16.6182 17.4999 16.6182C18.6859 16.6182 19.6511 15.6583 19.6511 14.4786C19.6511 13.299 18.6859 12.339 17.4999 12.339ZM9.32236 11.715L8.50636 11.136C8.44202 11.091 8.36744 11.0677 8.29139 11.0677C8.24167 11.0677 8.19049 11.0779 8.14369 11.0982C7.40815 11.4168 6.62723 11.5797 5.82149 11.5797C3.74494 11.5797 1.81019 10.467 0.773583 8.67496C0.267594 7.80076 0 6.80297 0 5.78914C0 2.59642 2.61178 0 5.82171 0C9.03157 0 11.6434 2.59638 11.6434 5.78914C11.6434 6.71279 11.4314 7.5957 11.0117 8.41315C10.9678 8.49897 10.9196 8.58915 10.8625 8.68515C10.6417 9.06332 10.3756 9.41971 10.0699 9.74553C10.0056 9.81389 9.97049 9.90262 9.97049 9.99572V12.1746L9.32703 11.7179C9.32557 11.7164 9.32382 11.7164 9.32236 11.715ZM9.42179 3.29768C9.57827 3.16822 9.6002 2.93549 9.46859 2.77987C9.33844 2.62423 9.10446 2.60241 8.948 2.73332L3.28277 7.42846L2.27813 5.85462C2.16846 5.68299 1.94033 5.63208 1.76777 5.74117C1.59521 5.85026 1.54402 6.07717 1.6537 6.24881L2.88356 8.17609C2.94059 8.26482 3.03272 8.32591 3.13801 8.34191C3.15702 8.34482 3.17603 8.34627 3.19504 8.34627C3.28132 8.34627 3.36467 8.31718 3.43194 8.26045L9.42024 3.29759L9.42179 3.29768ZM34.9982 5.78786C34.9982 6.80169 34.7306 7.79948 34.2247 8.67368C33.1879 10.4657 31.2532 11.5784 29.1768 11.5784C28.371 11.5784 27.5901 11.417 26.8545 11.0969C26.7361 11.0446 26.5972 11.0591 26.4919 11.1348L25.6715 11.7166C25.6657 11.7209 25.6598 11.7253 25.6554 11.7297L25.0281 12.1748V9.99584C25.0281 9.90274 24.993 9.81256 24.9286 9.74565C24.623 9.41983 24.3569 9.06348 24.136 8.68527C24.0848 8.598 24.0351 8.50782 23.9883 8.41473C23.9854 8.41036 23.9839 8.406 23.981 8.40164C23.5672 7.58709 23.3566 6.70854 23.3566 5.79073C23.3566 2.59801 25.9684 0.00159286 29.1783 0.00159286C32.3881 0.00159286 35 2.59797 35 5.79073L34.9982 5.78786ZM29.7003 5.78786L32.3676 3.13477C32.5124 2.99077 32.5124 2.75805 32.3676 2.6155C32.2228 2.4715 31.9889 2.4715 31.8455 2.6155L29.1782 5.2686L26.5109 2.6155C26.3661 2.4715 26.1321 2.4715 25.9888 2.6155C25.8441 2.75951 25.8441 2.99223 25.9888 3.13477L28.6562 5.78786L25.9888 8.44095C25.8441 8.58495 25.8441 8.81767 25.9888 8.96021C26.0605 9.03149 26.1555 9.06785 26.2506 9.06785C26.3456 9.06785 26.4392 9.03148 26.5124 8.96021L29.1797 6.30712L31.847 8.96021C31.9187 9.03149 32.0137 9.06785 32.1088 9.06785C32.2038 9.06785 32.2974 9.03148 32.3705 8.96021C32.5153 8.81621 32.5153 8.58349 32.3705 8.44095L29.7032 5.78786H29.7003ZM25.6905 12.6081C25.9113 13.3674 26.0224 14.1542 26.0224 14.9557C26.0224 17.3645 24.6244 19.8504 23.3259 21.1418C21.3809 23.0763 21.318 24.0552 21.2025 26.3795H13.8002C13.6847 24.0536 13.6218 23.0762 11.6769 21.1418C10.3783 19.8501 8.98032 17.3642 8.98032 14.9557C8.98032 14.1543 9.09145 13.3674 9.31227 12.6081L10.1283 13.187C10.1429 13.1972 10.159 13.2074 10.1751 13.2146C10.1809 13.2175 10.1853 13.219 10.1912 13.2219C10.2028 13.2263 10.2131 13.2321 10.2248 13.235C10.2321 13.2379 10.2379 13.2394 10.2453 13.2408C10.2555 13.2437 10.2657 13.2466 10.2774 13.2481C10.2847 13.2495 10.2921 13.251 10.2994 13.251C10.3096 13.2524 10.3198 13.2524 10.3315 13.2539C10.3359 13.2539 10.3388 13.2554 10.3432 13.2554C10.3476 13.2554 10.352 13.2554 10.3564 13.2539C10.3622 13.2539 10.3681 13.2539 10.3739 13.2524C10.3842 13.251 10.3944 13.2495 10.4032 13.2481C10.409 13.2466 10.4149 13.2466 10.4207 13.2452C10.431 13.2423 10.4412 13.2394 10.4515 13.2364C10.4558 13.235 10.4617 13.2335 10.4661 13.2321C10.4807 13.2263 10.4953 13.2204 10.5099 13.2132C10.6328 13.1506 10.7103 13.0241 10.7103 12.8859V10.1354C11.013 9.79936 11.2791 9.43427 11.5029 9.0488C11.5321 8.99934 11.5585 8.95134 11.5848 8.90334C11.5936 8.8888 11.6009 8.8728 11.6082 8.85825C11.6199 8.83789 11.6301 8.81752 11.6418 8.79716C13.2299 7.30045 15.3079 6.4757 17.4998 6.4757C19.6948 6.4757 21.7743 7.3019 23.3579 8.79716C23.371 8.82189 23.3842 8.84516 23.3973 8.86989C23.4047 8.88443 23.412 8.89898 23.4207 8.91207C23.4456 8.95862 23.4719 9.0037 23.4982 9.04734C23.722 9.43132 23.9881 9.79643 24.2908 10.1324V12.883C24.2908 13.0212 24.3684 13.1463 24.4912 13.2103C24.5058 13.2175 24.5204 13.2234 24.5351 13.2292C24.5395 13.2306 24.5453 13.2321 24.5497 13.2335C24.5599 13.2364 24.5702 13.2394 24.5819 13.2423C24.5877 13.2437 24.5936 13.2437 24.5994 13.2452C24.6096 13.2466 24.6199 13.2481 24.6287 13.2495C24.6345 13.2495 24.6404 13.251 24.6462 13.251C24.6506 13.251 24.655 13.2524 24.6594 13.2524C24.6638 13.2524 24.6667 13.251 24.6711 13.251C24.6813 13.251 24.6915 13.2495 24.7018 13.2481C24.7091 13.2466 24.7164 13.2466 24.7237 13.2452C24.7339 13.2437 24.7442 13.2408 24.7559 13.2379C24.7632 13.2364 24.769 13.235 24.7764 13.2321C24.7881 13.2277 24.7983 13.2234 24.81 13.219C24.8158 13.2161 24.8217 13.2146 24.8261 13.2117C24.8422 13.203 24.8582 13.1943 24.8729 13.1841L25.6889 12.6052L25.6905 12.6081ZM24.1272 13.7121C24.1272 13.5331 23.9971 13.379 23.8186 13.3499L22.0272 13.0517C21.9468 12.7986 21.8415 12.547 21.7128 12.3026L22.7701 10.8306C22.8754 10.6837 22.8579 10.4844 22.7306 10.3564L21.6441 9.27429C21.5169 9.14774 21.3151 9.13029 21.1674 9.23501L19.6875 10.2866C19.4506 10.1645 19.1976 10.0597 18.9359 9.97828L18.6361 8.19209C18.6068 8.01463 18.4518 7.88518 18.272 7.88518H16.735C16.5537 7.88518 16.4001 8.01463 16.3709 8.19209L16.0726 9.97828C15.8093 10.0612 15.5578 10.1645 15.3209 10.2881L13.8396 9.23647C13.6919 9.13174 13.4915 9.14919 13.3629 9.27574L12.2763 10.3579C12.1491 10.4844 12.1316 10.6852 12.2369 10.8321L13.2941 12.3026C13.1669 12.5426 13.0616 12.7957 12.9797 13.0531L11.1869 13.3513C11.0085 13.3804 10.8783 13.5346 10.8783 13.7135V15.2408C10.8783 15.4197 11.0085 15.5739 11.1869 15.603L12.9768 15.9012C13.0587 16.1601 13.164 16.4132 13.2897 16.6561L12.2368 18.1222C12.1315 18.2691 12.1491 18.4684 12.2763 18.5964L13.3628 19.6786C13.49 19.8051 13.6918 19.8226 13.8381 19.7178L15.3121 18.672C15.5563 18.8 15.8122 18.9048 16.0725 18.9877L16.3708 20.7622C16.4001 20.9397 16.5551 21.0691 16.735 21.0691H18.2719C18.4533 21.0691 18.6068 20.9397 18.6361 20.7622L18.9344 18.9877C19.1961 18.9062 19.452 18.8 19.6948 18.672L21.1688 19.7178C21.3151 19.8226 21.5169 19.8051 21.6441 19.6786L22.7306 18.5964C22.8578 18.4699 22.8754 18.2691 22.7701 18.1222L21.7172 16.6561C21.84 16.4248 21.9453 16.1717 22.0316 15.9012L23.82 15.603C23.9984 15.5739 24.1286 15.4197 24.1286 15.2408V13.7135L24.1272 13.7121Z" fill="#3F77A5"/>
</svg>
