<svg width="35" height="35" viewBox="0 0 35 35" fill="none" xmlns="http://www.w3.org/2000/svg">
<path fill-rule="evenodd" clip-rule="evenodd" d="M27.5112 3.81369L27.5237 3.8012C27.6376 3.68261 27.7905 3.61395 27.9528 3.60459L28.0948 3.46259L28.4162 3.75595L28.4303 3.76999L28.4428 3.78092L30.81 6.06221C30.9348 6.18236 31.0051 6.34776 31.0082 6.5194C31.0113 6.6926 30.9473 6.86269 30.8256 6.98753L29.0326 8.84751L29.0279 8.85219L29.493 9.55436C29.9549 10.2503 30.3575 10.9884 30.6914 11.7545C31.0254 12.5207 31.2922 13.3149 31.4873 14.1263L31.6823 14.9409L31.6839 14.9471L34.2727 14.9003C34.4459 14.8972 34.6144 14.9658 34.7393 15.086C34.8641 15.2061 34.9375 15.37 34.9406 15.5416L34.9999 18.8216C35.003 18.9948 34.9344 19.1633 34.8142 19.2881C34.694 19.413 34.5302 19.4863 34.3586 19.4894L31.7682 19.5362L31.6012 20.3633C31.4358 21.1825 31.197 21.9861 30.8912 22.7647C30.5854 23.5433 30.2108 24.2939 29.7739 25.007L29.3338 25.7248L31.2002 27.524C31.325 27.6441 31.3952 27.8095 31.3983 27.9811C31.4015 28.1543 31.3375 28.3244 31.2158 28.4493L28.9391 30.8102C28.8251 30.9288 28.6722 30.9974 28.5099 31.0068L28.3679 31.1488L28.0465 30.8554L28.0324 30.8414L28.0199 30.8305L26.1552 29.0329L26.1505 29.0282L25.4483 29.4932C24.7523 29.9551 24.0142 30.3577 23.248 30.6916C22.4818 31.0255 21.6876 31.2924 20.8761 31.4874L20.0615 31.6825L20.0553 31.684L20.1021 34.2727C20.1052 34.4459 20.0366 34.6145 19.9164 34.7393C19.7963 34.8642 19.6324 34.9375 19.4608 34.9406L16.1807 34.9999C16.0075 35.003 15.8389 34.9344 15.7141 34.8142C15.5892 34.6941 15.5159 34.5302 15.5128 34.3586L15.466 31.7683L14.6389 31.6013C13.8197 31.4359 13.016 31.1972 12.2389 30.8914C11.4603 30.5855 10.7097 30.2111 9.99652 29.7741L9.2787 29.3341L7.47948 31.2003C7.36556 31.3189 7.21264 31.3876 7.05036 31.3969L6.90835 31.5389L6.58534 31.2456L6.5791 31.2409L6.55881 31.2206L4.19157 28.9393C4.06673 28.8192 3.99651 28.6538 3.99339 28.4821C3.99027 28.3089 4.05425 28.1404 4.17597 28.014L5.96895 26.154L5.97364 26.1493L5.5086 25.4472C5.04672 24.7512 4.64409 24.0132 4.31016 23.247C3.97622 22.4808 3.70938 21.6866 3.51432 20.8736L3.31926 20.0591L3.3177 20.0528L0.728869 20.0997C0.555659 20.1028 0.387126 20.0341 0.262276 19.914C0.137439 19.7938 0.0640984 19.63 0.0609744 19.4583L0.00947744 16.6559L0.000114441 16.1784C-0.0030063 16.0146 0.0578513 15.857 0.163965 15.7352V15.5199L3.23185 15.4637L3.39882 14.6367C3.56423 13.8175 3.80298 13.0139 4.10882 12.2368C4.41467 11.4582 4.78917 10.7076 5.22612 9.99452L5.66619 9.27673L3.79986 7.47759C3.68126 7.36368 3.6126 7.21076 3.60324 7.04848L3.46124 6.90649L3.75461 6.58348L3.75929 6.57724L3.77957 6.55696L6.06096 4.18982C6.18112 4.06499 6.34653 3.99477 6.51817 3.99165C6.69138 3.98853 6.85991 4.0525 6.98632 4.17422L8.84638 5.96713L8.85106 5.97181L9.55327 5.50679C10.2492 5.04493 10.9873 4.64231 11.7535 4.3084C12.5197 3.97448 13.314 3.70765 14.1254 3.51259L14.94 3.31754L14.9463 3.31598L14.8994 0.727264C14.8963 0.554061 14.965 0.385536 15.0851 0.260692C15.2053 0.135847 15.3691 0.062522 15.5408 0.0593982L18.8209 0.000101964C18.9941 -0.00301864 19.1626 0.0656378 19.2875 0.185788C19.4123 0.305939 19.4856 0.469783 19.4888 0.641416L19.5356 3.23169L20.3626 3.39866C21.1819 3.56406 21.9855 3.80279 22.7642 4.10862C23.5428 4.41445 24.2934 4.78895 25.0066 5.22588L25.7244 5.66593L27.5112 3.81218L27.5112 3.81369ZM12.1875 14.4789L11.8255 14.6334C12.2843 13.7284 12.9521 12.9482 13.7683 12.3552C14.8154 11.5938 16.1059 11.1444 17.5025 11.1444C19.258 11.1444 20.8466 11.8559 21.9982 13.006C23.1483 14.156 23.8599 15.746 23.8599 17.5015C23.8599 19.257 23.1483 20.8455 21.9982 21.9971C20.8482 23.1471 19.2581 23.8587 17.5025 23.8587C16.51 23.8587 15.5738 23.6324 14.7389 23.2298C13.8713 22.8101 13.1129 22.2 12.5199 21.451C12.3561 21.245 12.0549 21.2107 11.8489 21.3745C11.6429 21.5384 11.6086 21.8395 11.7724 22.0455C12.4543 22.9053 13.3266 23.6075 14.3253 24.0896C15.2882 24.5546 16.3665 24.8152 17.504 24.8152C19.5233 24.8152 21.3521 23.996 22.6753 22.6728C23.9984 21.3496 24.8178 19.5208 24.8178 17.5017C24.8178 15.4827 23.9986 13.6538 22.6753 12.3307C21.352 11.0076 19.5231 10.1882 17.504 10.1882C15.8999 10.1882 14.4158 10.7047 13.2096 11.5817C12.2546 12.2761 11.4728 13.1967 10.9438 14.2672L10.7955 13.9176C10.6926 13.6758 10.4117 13.5619 10.1698 13.6648C9.92793 13.7678 9.81401 14.0487 9.91701 14.2906L10.5193 15.7074C10.6223 15.9493 10.9032 16.0632 11.1451 15.9602L12.562 15.3579C12.8039 15.2549 12.9178 14.974 12.8148 14.7322C12.7118 14.4903 12.4309 14.3764 12.1891 14.4794L12.1875 14.4789ZM17.022 13.9469V17.5014C17.022 17.6903 17.1328 17.8541 17.292 17.9321L20.2304 19.6283C20.4582 19.7609 20.75 19.6829 20.8826 19.4551C21.0153 19.2272 20.9372 18.9354 20.7094 18.8028L17.9802 17.2268V13.9469C17.9802 13.6832 17.7664 13.4678 17.5011 13.4678C17.2374 13.4678 17.022 13.6816 17.022 13.9469ZM27.3086 17.3033C27.2556 14.7005 26.1835 12.2477 24.3094 10.4405C22.4353 8.63356 19.9339 7.64893 17.3309 7.69419H17.3044C14.7015 7.74724 12.2486 8.81923 10.4413 10.6948C8.63274 12.5704 7.64806 15.0749 7.69488 17.679C7.7417 20.2896 8.8153 22.7502 10.6941 24.5618C12.5698 26.3703 15.0744 27.3549 17.6786 27.3081C20.2893 27.2613 22.75 26.1877 24.5616 24.309C26.3687 22.435 27.3533 19.9337 27.3081 17.3308L27.3086 17.3033Z" fill="#3F77A5"/>
</svg>
