<svg width="35" height="55" viewBox="0 0 35 55" fill="none" xmlns="http://www.w3.org/2000/svg">
<path d="M17.5089 38.4261C20.3127 38.4261 22.5856 36.1749 22.5856 33.3978C22.5856 30.6207 20.3127 28.3694 17.5089 28.3694C14.7051 28.3694 12.4321 30.6207 12.4321 33.3978C12.4321 36.1749 14.7051 38.4261 17.5089 38.4261Z" fill="#3F77A5"/>
<path d="M24.0442 45.4244C23.8318 42.0364 20.9892 39.3506 17.5024 39.3506C14.047 39.3506 11.2225 41.988 10.9646 45.335C10.9405 45.5366 10.9225 45.7378 10.9181 45.9429C10.9181 45.9583 10.9147 49.65 10.9099 54.2366H24.0835L24.0806 46.0639C24.0806 45.8472 24.0661 45.6351 24.0442 45.4244Z" fill="#3F77A5"/>
<path d="M2.22865 14.6158C2.53394 14.6158 2.78135 14.3711 2.78135 14.0685V7.99574C2.78135 7.69319 2.53394 7.44849 2.22865 7.44849C1.92337 7.44849 1.67578 7.69319 1.67578 7.99574V14.0685C1.67578 14.3711 1.92337 14.6158 2.22865 14.6158Z" fill="#3F77A5"/>
<path d="M2.22865 17.1258C2.53394 17.1258 2.78135 16.8813 2.78135 16.5786V15.6877C2.78135 15.3852 2.53394 15.1401 2.22865 15.1401C1.92337 15.1401 1.67578 15.3852 1.67578 15.6877V16.5786C1.67578 16.8813 1.92337 17.1258 2.22865 17.1258Z" fill="#3F77A5"/>
<path d="M21.0291 7.16763C21.3345 7.16763 21.5823 6.92257 21.5823 6.61984V0.547607C21.5823 0.245056 21.3345 0 21.0291 0C20.724 0 20.4766 0.245056 20.4766 0.547607V6.61984C20.4766 6.92257 20.724 7.16763 21.0291 7.16763Z" fill="#3F77A5"/>
<path d="M21.0291 9.6772C21.3345 9.6772 21.5823 9.43232 21.5823 9.1296V8.23877C21.5823 7.93604 21.3345 7.69116 21.0291 7.69116C20.724 7.69116 20.4766 7.93604 20.4766 8.23877V9.1296C20.4766 9.43232 20.724 9.6772 21.0291 9.6772Z" fill="#3F77A5"/>
<path d="M30.348 7.73422C30.6535 7.73422 30.9009 7.48916 30.9009 7.18644V5.32397C30.9009 5.02142 30.6535 4.77637 30.348 4.77637C30.0426 4.77637 29.7952 5.02142 29.7952 5.32397V7.18644C29.7952 7.48916 30.0426 7.73422 30.348 7.73422Z" fill="#3F77A5"/>
<path d="M30.348 14.4542C30.6535 14.4542 30.9009 14.2093 30.9009 13.9066V8.72485C30.9009 8.42178 30.6535 8.17725 30.348 8.17725C30.0426 8.17725 29.7952 8.42178 29.7952 8.72485V13.9066C29.7952 14.2093 30.0426 14.4542 30.348 14.4542Z" fill="#3F77A5"/>
<path d="M33.4536 14.5349C33.7587 14.5349 34.0065 14.2899 34.0065 13.9871V9.3728C34.0065 9.07008 33.7587 8.8252 33.4536 8.8252C33.1485 8.8252 32.9011 9.07008 32.9011 9.3728V13.9871C32.9011 14.2899 33.1485 14.5349 33.4536 14.5349Z" fill="#3F77A5"/>
<path d="M33.4536 18.5028C33.7587 18.5028 34.0065 18.2577 34.0065 17.9552V15.2834C34.0065 14.9803 33.7587 14.7356 33.4536 14.7356C33.1485 14.7356 32.9011 14.9803 32.9011 15.2834V17.9552C32.9011 18.2577 33.1485 18.5028 33.4536 18.5028Z" fill="#3F77A5"/>
<path d="M12.0369 5.14306C12.342 5.14306 12.5898 4.89818 12.5898 4.59545V0.790421C12.5898 0.487694 12.342 0.243164 12.0369 0.243164C11.7313 0.243164 11.4839 0.487694 11.4839 0.790421V4.59545C11.4839 4.89818 11.7313 5.14306 12.0369 5.14306Z" fill="#3F77A5"/>
<path d="M12.0369 9.91999C12.342 9.91999 12.5898 9.67529 12.5898 9.37274V6.45766C12.5898 6.15493 12.342 5.9104 12.0369 5.9104C11.7313 5.9104 11.4839 6.15493 11.4839 6.45766V9.37274C11.4839 9.67529 11.7313 9.91999 12.0369 9.91999Z" fill="#3F77A5"/>
<path d="M17.4973 9.66626C7.91843 9.66626 0.14282 17.2879 0 26.7383C0.478543 25.5819 1.57208 24.7726 2.84577 24.7726C4.19451 24.7726 5.33883 25.6806 5.76747 26.9462C6.19593 25.6806 7.34043 24.7726 8.68899 24.7726C10.0375 24.7726 11.1819 25.6806 11.6102 26.9462C12.0386 25.6806 13.1833 24.7726 14.5322 24.7726C15.8808 24.7726 17.0249 25.6806 17.4534 26.9462C17.8818 25.6806 19.0265 24.7726 20.3751 24.7726C21.7233 24.7726 22.8679 25.6806 23.2966 26.9462C23.7249 25.6806 24.8695 24.7726 26.2181 24.7726C27.5667 24.7726 28.7113 25.6806 29.1396 26.9462C29.5679 25.6806 30.7126 24.7726 32.0611 24.7726C33.4277 24.7726 34.5855 25.7041 35 26.9962C34.9975 17.4267 27.161 9.66626 17.4973 9.66626Z" fill="#3F77A5"/>
<path d="M5.7873 27.0031C5.78114 26.9839 5.77408 26.9657 5.76755 26.9463C5.76103 26.9657 5.75396 26.9839 5.7478 27.0031H5.7873Z" fill="#3F77A5"/>
<path d="M11.6304 27.0031C11.6242 26.9839 11.6172 26.9657 11.6105 26.9463C11.6043 26.9657 11.5972 26.9839 11.5911 27.0031H11.6304Z" fill="#3F77A5"/>
<path d="M17.4732 27.0031C17.4671 26.9839 17.46 26.9651 17.4535 26.9463C17.4473 26.9651 17.4402 26.9839 17.4341 27.0031H17.4732Z" fill="#3F77A5"/>
<path d="M23.3165 27.0031C23.3103 26.9839 23.3034 26.9657 23.2969 26.9463C23.2908 26.9657 23.2835 26.9839 23.2773 27.0031H23.3165Z" fill="#3F77A5"/>
<path d="M29.1599 27.0031C29.1533 26.9839 29.1465 26.9657 29.1403 26.9463C29.1338 26.9657 29.1265 26.9839 29.1204 27.0031H29.1599Z" fill="#3F77A5"/>
</svg>
