<svg width="35" height="38" viewBox="0 0 35 38" fill="none" xmlns="http://www.w3.org/2000/svg">
<path d="M25.5401 19.014C25.5401 15.6225 23.4154 12.7281 20.4587 11.6658V1.0423C20.4587 0.785737 20.2555 0.577276 20.0056 0.577276H15.9123C15.6701 0.577276 15.4709 0.77371 15.4592 1.02226L15.3616 3.51577C14.4359 3.67613 13.5297 3.92468 12.6548 4.25741L11.3581 2.14875C11.2292 1.93628 10.9597 1.86813 10.7488 1.99641L7.20232 4.09706C6.99141 4.22133 6.9172 4.49393 7.02656 4.71442L8.15924 6.92731C7.44057 7.54067 6.77659 8.22218 6.179 8.95981L4.02299 7.79724C3.80817 7.68098 3.54257 7.76116 3.42149 7.97763L1.37485 11.6177C1.25377 11.8342 1.32017 12.1108 1.52327 12.2431L3.57773 13.574C3.25354 14.472 3.01138 15.4061 2.85515 16.3521L0.433545 16.4484C0.191385 16.4564 0 16.6608 0 16.9134V21.1147C0 21.3632 0.191385 21.5677 0.433545 21.5797L2.86296 21.6799C3.01919 22.63 3.26135 23.5601 3.58554 24.4581L1.53108 25.789C1.32407 25.9213 1.25767 26.1979 1.38266 26.4144L3.4293 30.0544C3.55038 30.2709 3.81598 30.3471 4.0308 30.2348L6.18681 29.0723C6.7844 29.8099 7.44839 30.4914 8.16706 31.1048L7.03437 33.3176C6.9211 33.5381 6.99922 33.8107 7.21013 33.935L10.7566 36.0357C10.9675 36.1599 11.237 36.0918 11.3659 35.8833L12.6626 33.7747C13.5376 34.1074 14.4476 34.3559 15.3694 34.5163L15.467 37.0098C15.4748 37.2584 15.674 37.4548 15.9201 37.4548H20.0134C20.2634 37.4548 20.4665 37.2463 20.4665 36.9898V26.3663C23.4154 25.2999 25.5401 22.4055 25.5401 19.014ZM24.6379 19.014C24.6379 22.7944 21.6421 25.8692 17.9589 25.8692C14.2757 25.8692 11.28 22.7944 11.28 19.014C11.28 15.2337 14.2757 12.1589 17.9589 12.1589C21.6421 12.1589 24.6379 15.2337 24.6379 19.014ZM34.9961 10.876C34.9961 9.52105 34.0353 8.39456 32.7776 8.17407V5.44403C34.0353 5.22355 34.9961 4.09706 34.9961 2.74206C34.9961 1.23072 33.797 0 32.3245 0C31.0044 0 29.9068 0.98618 29.692 2.27703H23.802C23.677 2.27703 23.556 2.33316 23.47 2.42536L21.3726 4.77055C21.2047 4.95896 21.2164 5.25161 21.4 5.42399C21.4859 5.50417 21.5952 5.54426 21.7046 5.54426C21.8257 5.54426 21.9468 5.49214 22.0366 5.39593L23.9973 3.20308H29.6881C29.8795 4.34561 30.7583 5.2476 31.8675 5.44002V8.17006C30.7544 8.3665 29.8756 9.26849 29.6881 10.407H27.4813C27.3563 10.407 27.2352 10.4631 27.1493 10.5553L25.0519 12.8925C24.8839 13.0809 24.8957 13.3736 25.0792 13.5459C25.1652 13.6261 25.2745 13.6702 25.3839 13.6702C25.505 13.6702 25.626 13.6181 25.7159 13.5219L27.6805 11.3331H29.6881C29.8795 12.4756 30.7583 13.3776 31.8675 13.57V16.3C30.7544 16.4965 29.8756 17.3985 29.6881 18.537H27.9109C27.661 18.537 27.4579 18.7454 27.4579 19.002C27.4579 19.2586 27.661 19.467 27.9109 19.467H29.6881C29.8795 20.6096 30.7583 21.5116 31.8675 21.704V24.434C30.7544 24.6304 29.8756 25.5324 29.6881 26.671H27.6805L25.7159 24.4821C25.5479 24.2937 25.2628 24.2817 25.0792 24.4541C24.8957 24.6264 24.8839 24.9191 25.0519 25.1075L27.1493 27.4447C27.2352 27.5409 27.3563 27.593 27.4813 27.593H29.6881C29.8795 28.7355 30.7583 29.6375 31.8675 29.8299V32.56C30.7544 32.7564 29.8756 33.6584 29.6881 34.7969H24.0012L22.0405 32.6041C21.8726 32.4157 21.5874 32.4036 21.4039 32.576C21.2203 32.7484 21.2086 33.041 21.3765 33.2295L23.4739 35.5746C23.5599 35.6709 23.681 35.723 23.8059 35.723H29.6959C29.9107 37.0138 31.0083 38 32.3284 38C33.8009 38 35 36.7693 35 35.2579C35 33.9029 34.0392 32.7765 32.7815 32.556V29.8259C34.0392 29.6054 35 28.479 35 27.124C35 25.769 34.0392 24.6425 32.7815 24.422V21.6919C34.0392 21.4715 35 20.345 35 18.99C35 17.635 34.0392 16.5085 32.7815 16.288V13.558C34.0353 13.3575 34.9961 12.231 34.9961 10.876ZM32.3284 4.55407C31.352 4.55407 32.3284 5.56696 32.3284 4.55407C33.3049 4.55407 33.3049 4.55407 32.3284 4.55407C32.3284 5.55628 32.3284 5.52692 32.3284 4.55407C32.3284 5.55628 31.352 4.55407 32.3284 4.55407Z" fill="#3F77A5"/>
</svg>
