<svg width="35" height="35" viewBox="0 0 35 35" fill="none" xmlns="http://www.w3.org/2000/svg">
<path fill-rule="evenodd" clip-rule="evenodd" d="M34.9673 13.0145C34.9129 13.1352 34.7907 13.2106 34.6578 13.2076H32.7257V34.2505C32.7257 34.6548 32.3997 34.9806 31.9966 34.9806H28.2788C28.0856 34.9806 27.8984 34.9037 27.7626 34.7679C27.6252 34.6306 27.5482 34.4451 27.5482 34.2505V13.2076H25.6161C25.4848 13.2106 25.364 13.1352 25.3112 13.0145C25.2523 12.8969 25.2674 12.7566 25.3489 12.6555L29.5996 7.24878C29.7294 7.08284 29.9272 6.98629 30.137 6.98629C30.3468 6.98629 30.546 7.08284 30.6743 7.24878L34.925 12.6555C35.0065 12.7566 35.0231 12.8968 34.9673 13.0145ZM19.2128 8.60805V10.6054C19.2128 10.8664 19.0256 11.0912 18.769 11.1379L17.6097 11.3461C17.4044 11.3808 17.2384 11.5317 17.184 11.7323C17.015 12.3357 16.7735 12.9165 16.4655 13.4626C16.3598 13.6422 16.3704 13.8684 16.4927 14.0374L17.1538 14.9954C17.3093 15.2035 17.2942 15.4947 17.1146 15.6832L15.6926 17.1043C15.507 17.2899 15.2156 17.3155 15.0013 17.1662L14.0428 16.5054C13.8722 16.3832 13.6473 16.3727 13.4661 16.4783C12.9197 16.786 12.3386 17.0274 11.7348 17.1964C11.5355 17.2507 11.3846 17.4166 11.3483 17.6218L11.14 18.7804C11.0933 19.0383 10.8683 19.2254 10.6072 19.2239H8.61318C8.35053 19.2269 8.12261 19.0398 8.07582 18.7804L7.86751 17.6218C7.8343 17.4166 7.68336 17.2492 7.48109 17.1964C6.8773 17.0289 6.29616 16.7875 5.74971 16.4783C5.57009 16.3727 5.34366 16.3832 5.1746 16.5054L4.22059 17.1662H4.21909C4.00323 17.3155 3.7104 17.2899 3.52321 17.1043L2.10882 15.6908H2.11033C1.91863 15.5052 1.89146 15.2095 2.04391 14.9923L2.7081 14.0344C2.82886 13.8639 2.83792 13.6376 2.73225 13.4581C2.42583 12.912 2.18581 12.3312 2.01675 11.7277C1.96241 11.5271 1.79486 11.3762 1.58805 11.3415L0.448408 11.1334C0.188778 11.0881 7.91803e-05 10.8633 7.91803e-05 10.6008V8.60802C-0.00444932 8.34251 0.185744 8.11322 0.448408 8.06796L1.60768 7.85978V7.85827C1.81448 7.82659 1.98354 7.67574 2.03638 7.47208C2.20544 6.87016 2.44545 6.28937 2.75038 5.74174C2.85604 5.56223 2.84547 5.33744 2.72471 5.16697L2.04395 4.21354C1.89301 3.99631 1.92018 3.70365 2.10584 3.51809L3.52023 2.10454C3.7059 1.91899 3.99874 1.89184 4.2161 2.04269L5.17011 2.70648C5.34068 2.82716 5.56557 2.83622 5.74522 2.73062C6.29317 2.42438 6.87431 2.1845 7.47659 2.01554C7.68037 1.96274 7.83132 1.79378 7.86302 1.5871L8.07132 0.44814H8.07283C8.11812 0.185648 8.34756 -0.00443958 8.61321 7.88758e-05H10.6118C10.8744 7.88758e-05 11.0993 0.188649 11.1446 0.44814L11.3529 1.60672C11.3861 1.81188 11.5371 1.98084 11.7393 2.03516C12.3431 2.20412 12.9243 2.44398 13.4707 2.74873C13.6503 2.85583 13.8752 2.84679 14.0458 2.7261L15.0013 2.04273C15.2157 1.89338 15.507 1.91903 15.6927 2.10458L17.1146 3.51813C17.3018 3.70368 17.3289 3.99786 17.1765 4.21358L16.5154 5.16702C16.3931 5.33748 16.3825 5.56225 16.4882 5.74179C16.7961 6.28941 17.0376 6.8702 17.2067 7.47212C17.2595 7.67427 17.4271 7.82513 17.6324 7.85831L18.7917 8.0665V8.068C19.0437 8.12382 19.2188 8.3501 19.2128 8.60805ZM14.8732 9.60069C14.8732 7.47211 13.5902 5.55184 11.6218 4.73697C9.65343 3.92234 7.3893 4.37341 5.88263 5.87895C4.37619 7.38448 3.92485 9.64734 4.73997 11.6147C5.5551 13.5819 7.47663 14.8641 9.6066 14.8641C11.0044 14.8657 12.3433 14.3105 13.332 13.3239C14.3192 12.3358 14.8747 10.9976 14.8732 9.60069ZM14.1426 9.60069C14.1426 11.4351 13.0377 13.087 11.3426 13.7901C9.64744 14.4916 7.69569 14.1039 6.39905 12.8065C5.10089 11.5106 4.71296 9.5601 5.41487 7.86595C6.11677 6.1718 7.77116 5.06605 9.60679 5.06605C10.8098 5.06605 11.9646 5.54277 12.8159 6.39359C13.6673 7.24441 14.1441 8.39835 14.1426 9.60069ZM11.0814 10.7095H11.0829C11.089 10.3489 10.9501 10.002 10.6965 9.74701C10.4218 9.48302 10.0716 9.30803 9.69575 9.24465C9.46178 9.20694 9.24591 9.10134 9.07384 8.93993C8.95157 8.82377 8.88063 8.66084 8.88063 8.49186C8.88365 8.08153 9.21573 7.75115 9.62631 7.74663C9.76216 7.74814 9.89651 7.78585 10.0127 7.85826C10.132 7.93067 10.2271 8.03627 10.2905 8.15997C10.3237 8.25954 10.3992 8.341 10.4973 8.38022C10.5939 8.42096 10.7041 8.41643 10.7992 8.36816C10.8928 8.32139 10.9622 8.2354 10.9879 8.13282C11.0135 8.03024 10.9924 7.92162 10.932 7.83563C10.8097 7.59124 10.6211 7.38456 10.3871 7.24124C10.2603 7.15978 10.1199 7.09943 9.97348 7.06323V6.61973C9.95385 6.43266 9.79687 6.28935 9.60819 6.28935C9.42101 6.28935 9.26252 6.43266 9.2429 6.61973V7.06323C8.98779 7.13111 8.75233 7.26387 8.56364 7.44942C8.28741 7.727 8.13343 8.10112 8.13494 8.49183C8.12739 8.85238 8.26626 9.20084 8.52136 9.45732C8.79911 9.7183 9.1493 9.89329 9.52518 9.95967C9.75764 9.99588 9.97351 10.1 10.1441 10.2614C10.2679 10.3775 10.3373 10.539 10.3373 10.7094C10.3373 11.1213 10.0037 11.4547 9.5916 11.4547C9.30933 11.4547 9.04972 11.2963 8.9229 11.0444C8.88063 10.9584 8.80516 10.892 8.71308 10.8618C8.621 10.8316 8.52138 10.8392 8.43534 10.8829C8.25722 10.9719 8.18326 11.1907 8.27383 11.3687C8.3976 11.6131 8.58628 11.8198 8.81876 11.9646C8.94555 12.0415 9.08443 12.1004 9.22783 12.1381V12.5816C9.21726 12.6857 9.25047 12.7882 9.31991 12.8652C9.39085 12.9421 9.48897 12.9859 9.59312 12.9859C9.69727 12.9859 9.79539 12.9421 9.86633 12.8652C9.93577 12.7882 9.96898 12.6857 9.95841 12.5816V12.1381C10.6105 11.9691 11.0664 11.3823 11.0679 10.7095L11.0814 10.7095ZM17.4242 21.3869H13.5977C13.2218 21.3884 12.9169 21.6932 12.9139 22.0703V34.2504C12.9139 34.6517 13.237 34.9761 13.637 34.9806H17.3699C17.7729 34.9806 18.1005 34.6547 18.1005 34.2504V22.0703C18.0975 21.6962 17.797 21.393 17.4242 21.3869ZM24.7423 17.2972H20.9128C20.5369 17.2987 20.2335 17.6049 20.2335 17.9805V34.2504C20.2335 34.4481 20.312 34.6351 20.4524 34.7724C20.5927 34.9097 20.7829 34.9851 20.9792 34.9806H24.7121C25.1076 34.97 25.4231 34.6472 25.4231 34.2505V17.9805C25.4231 17.6049 25.1196 17.2987 24.7423 17.2972ZM10.1049 25.481H6.29502C5.91916 25.481 5.61426 25.7842 5.61426 26.1598V34.2699C5.61426 34.6712 5.9403 34.9985 6.34182 35H10.0748C10.4778 35 10.8053 34.6726 10.8053 34.2699V26.1598C10.8053 25.9758 10.7299 25.8008 10.5985 25.6726C10.4672 25.5443 10.2891 25.4749 10.1049 25.481Z" fill="#3F77A5"/>
</svg>
