<svg width="35" height="35" viewBox="0 0 35 35" fill="none" xmlns="http://www.w3.org/2000/svg">
<path d="M9.70735 5.801C11.2576 4.76643 12.9554 4.10135 14.6902 3.7688V1.47796C14.6902 0.665083 15.3546 0 16.1666 0H18.6396C19.4516 0 20.116 0.665083 20.116 1.47796V3.7688C21.8508 4.1383 23.5486 4.80338 25.0989 5.83795L26.7229 4.24914C27.3135 3.65796 28.2362 3.69491 28.7899 4.24914L30.5246 6.0227C31.1152 6.61388 31.0783 7.53761 30.5246 8.09184L28.9006 9.68065C29.9341 11.2325 30.5985 12.9322 30.9307 14.6688H33.2191C34.0311 14.6688 34.6955 15.3339 34.6955 16.1467V18.6223C34.6955 19.4352 34.0311 20.1003 33.2191 20.1003H30.9307C30.6354 21.6152 30.0817 23.0932 29.2697 24.4603L27.0182 22.2064C27.8671 20.5067 28.2731 18.5484 28.1255 16.6271C27.9409 14.0406 26.8336 11.5651 24.9881 9.7176C22.9581 7.6854 20.2267 6.53998 17.3477 6.53998C14.4688 6.53998 11.7743 7.64846 9.70735 9.7176C7.6773 11.7498 6.53309 14.484 6.53309 17.3661C6.53309 20.2481 7.64039 22.9454 9.70735 25.0145C11.7374 27.0467 14.4688 28.1921 17.3477 28.1921C19.0456 28.1921 20.7066 27.7857 22.183 27.0467L24.4345 29.3006C23.0319 30.1135 21.5555 30.7047 20.0053 31.0003V33.2911C20.0053 34.104 19.3409 34.7691 18.5289 34.7691H16.0559C15.2439 34.7691 14.5795 34.104 14.5795 33.2911V31.0003C12.8447 30.6308 11.1468 29.9657 9.59663 28.9311L7.97258 30.5199C7.38202 31.1111 6.45927 31.0742 5.90562 30.5199L4.17084 28.7464C3.58028 28.1552 3.61719 27.2315 4.17084 26.6772L5.79489 25.0884C4.7614 23.5366 4.09702 21.8369 3.76483 20.1003H1.4764C0.664382 20.1003 0 19.4352 0 18.6223V16.1467C0 15.3339 0.664382 14.6688 1.4764 14.6688H3.76483C4.13393 12.9322 4.79831 11.2325 5.83179 9.68065L4.24466 8.0549C3.6541 7.46371 3.69101 6.53998 4.24466 5.98575L6.01635 4.24914C6.60691 3.65796 7.52966 3.69491 8.08331 4.24914L9.70735 5.801ZM34.474 31.887C35.1753 32.5891 35.1753 33.7345 34.474 34.4735C33.7727 35.1755 32.6285 35.1755 31.8903 34.4735L23.0319 25.6057L23.3641 25.2732L22.8473 24.7559C19.2302 27.4532 14.0997 27.1576 10.8147 23.8691C7.19747 20.2481 7.19747 14.4101 10.8147 10.8261C14.4318 7.20507 20.2636 7.20507 23.8439 10.8261C27.1289 14.1145 27.4242 19.2505 24.7298 22.8715L25.2465 23.3888L25.5787 23.0562L34.474 31.887ZM16.6834 15.4078C16.6834 15.1491 16.7572 14.9274 16.8679 14.7427C17.0156 14.5579 17.2001 14.484 17.4954 14.484C17.7538 14.484 17.9752 14.5949 18.1598 14.7796C18.3074 14.9644 18.3812 15.1861 18.3812 15.4817C18.3812 15.6295 18.5289 15.7034 18.6396 15.7034L20.0422 15.6664C20.1898 15.6664 20.3375 15.5186 20.3006 15.3708C20.2636 14.7427 20.0791 14.2623 19.71 13.8189C19.3409 13.3756 18.8611 13.1169 18.2336 13.0061V11.9345C18.2336 11.7868 18.1229 11.7129 18.0121 11.7129H17.1632C17.0156 11.7129 16.9417 11.8237 16.9417 11.9345V13.08C16.2774 13.1908 15.7606 13.4125 15.3546 13.782C14.9117 14.2254 14.6902 14.7427 14.6902 15.4078C14.6902 16.1467 14.9117 16.701 15.3177 17.0705C15.7237 17.44 16.3881 17.8094 17.3108 18.1789C17.6799 18.3267 17.9383 18.5115 18.0859 18.6593C18.2336 18.844 18.3074 19.0657 18.3074 19.3613C18.3074 19.62 18.2336 19.8416 18.0859 19.9894C17.9383 20.1372 17.7168 20.2481 17.4585 20.2481C17.1263 20.2481 16.8679 20.1372 16.6465 19.9155C16.4619 19.7308 16.3881 19.4722 16.3512 19.1027C16.3512 18.9549 16.2035 18.844 16.0928 18.844L14.6902 18.881C14.5426 18.881 14.3949 19.0288 14.4318 19.1766C14.4688 19.9155 14.6902 20.5067 15.1331 20.8762C15.613 21.3196 16.2035 21.5783 16.9417 21.6522V22.6867C16.9417 22.8345 17.0525 22.9084 17.1632 22.9084H18.0121C18.1598 22.9084 18.2336 22.7976 18.2336 22.6867V21.6891C18.8242 21.5783 19.2671 21.3566 19.6362 20.9871C20.0791 20.5806 20.2636 20.0264 20.2636 19.3613C20.2636 18.6593 20.0422 18.105 19.6362 17.7355C19.2302 17.3661 18.5658 16.9596 17.643 16.5901C17.237 16.4054 16.9786 16.2576 16.831 16.0728C16.7572 15.925 16.6834 15.7034 16.6834 15.4078Z" fill="#3F77A5"/>
</svg>
