<svg width="35" height="36" viewBox="0 0 35 36" fill="none" xmlns="http://www.w3.org/2000/svg">
<path fill-rule="evenodd" clip-rule="evenodd" d="M20.7949 21.072H22.6568V18.4877C23.7225 18.8923 24.8709 19.1111 26.0744 19.1111C27.2779 19.1111 28.4309 18.8908 29.4921 18.4877V21.072H31.354L26.0743 26.0564L20.7949 21.072ZM26.0745 0C31.0018 0 35 4.0764 35 9.10801C35 14.136 31.0053 18.216 26.0745 18.216C21.1437 18.216 17.149 14.1364 17.149 9.10801C17.149 4.0768 21.1437 0 26.0745 0ZM28.4586 7.49201C28.4586 6.38732 27.5138 5.62324 26.514 5.46388V4.79512C26.514 4.54669 26.318 4.34668 26.0745 4.34668C25.831 4.34668 25.635 4.54668 25.635 4.79512V5.46388C24.6352 5.62795 23.6905 6.392 23.6905 7.49201C23.6905 9.09981 24.8434 9.32325 25.9918 9.54825C26.7834 9.69981 27.5751 9.85606 27.5751 10.7201C27.5751 11.4842 26.7283 11.8842 26.0745 11.8842C25.4192 11.8842 24.574 11.4795 24.574 10.7201C24.574 10.4717 24.378 10.2717 24.1345 10.2717C23.8911 10.2717 23.6951 10.4717 23.6951 10.7201C23.6951 11.8248 24.6398 12.5889 25.6397 12.7483V13.417C25.6397 13.6654 25.8357 13.8655 26.0791 13.8655C26.3226 13.8639 26.514 13.6686 26.514 13.4201V12.7514C26.981 12.6748 27.396 12.4826 27.7252 12.2107C28.1753 11.8342 28.4586 11.306 28.4586 10.7232C28.4586 9.11541 27.3056 8.89197 26.1572 8.66697C25.3656 8.5154 24.5739 8.35915 24.5739 7.49509C24.5739 6.731 25.4207 6.331 26.0745 6.331C26.7299 6.331 27.5751 6.73568 27.5751 7.49509C27.5751 7.74352 27.7711 7.94353 28.0145 7.94353C28.258 7.94353 28.4586 7.74044 28.4586 7.49201ZM26.0745 1.964C22.2098 1.964 19.074 5.15932 19.074 9.10761C19.074 13.0514 22.2053 16.2512 26.0745 16.2512C29.9437 16.2512 33.075 13.0559 33.075 9.10761C33.0719 5.16384 29.9391 1.964 26.0745 1.964ZM26.0745 2.864C22.6952 2.864 19.956 5.65932 19.956 9.10761C19.956 12.556 22.6953 15.3512 26.0745 15.3512C29.4537 15.3512 32.193 12.5559 32.193 9.10761C32.1899 5.65916 29.4491 2.864 26.0745 2.864ZM29.8734 23.692L26.0714 27.2795L22.1792 23.6077C20.8072 25.6999 18.4752 27.0764 15.8247 27.0764C11.6061 27.0764 8.18569 23.5842 8.18569 19.2812C8.18569 14.9764 11.6079 11.486 15.8247 11.486C16.0681 11.486 16.3101 11.4985 16.5505 11.5219C16.3622 10.7501 16.2642 9.94226 16.2642 9.11414C16.2642 6.60946 17.166 4.31894 18.6589 2.56254L12.551 2.55941V5.77974C10.0185 6.42038 7.76138 7.77974 6.00842 9.63598L3.27217 8.0235L0 13.8127L2.73166 15.4252C2.38714 16.6486 2.1988 17.9408 2.1988 19.2814C2.1988 20.6173 2.38254 21.9127 2.73166 23.1377L0 24.7502L3.27676 30.5422L6.01301 28.9297C7.76471 30.7859 10.0187 32.15 12.5556 32.7859V36H19.1061V32.7797C21.6387 32.139 23.8957 30.7797 25.6487 28.9234L28.385 30.5359L31.6617 24.7439L29.8734 23.692Z" fill="#3F77A5"/>
</svg>
