<svg width="35" height="36" viewBox="0 0 35 36" fill="none" xmlns="http://www.w3.org/2000/svg">
<path fill-rule="evenodd" clip-rule="evenodd" d="M17.4997 13.5644H17.5175V13.5629C18.8042 13.5629 20.1012 14.3789 20.1042 15.6629H20.1057C20.1057 16.8194 19.0243 17.5994 17.8983 17.7374L17.8909 18.3524C17.8879 18.5999 17.6871 18.7979 17.4416 18.7949C17.1962 18.7919 16.9999 18.5894 17.0029 18.3419L17.0103 17.7254C15.9259 17.5574 14.9085 16.7819 14.8981 15.6659C14.8966 15.4184 15.0929 15.2159 15.3399 15.2144C15.5853 15.2129 15.7861 15.4109 15.7876 15.6599C15.798 16.7024 17.6648 17.3084 18.7596 16.4714C19.0407 16.2569 19.2147 15.9704 19.2147 15.6644H19.2162C19.2147 15.3554 19.0452 15.0719 18.7625 14.8544C18.4517 14.6144 18.0128 14.4659 17.519 14.4659V14.4644H17.4848V14.4659C16.1982 14.4659 14.9011 13.6499 14.8981 12.3658H14.8966C14.8966 11.2094 15.978 10.4293 17.104 10.2899L17.1115 9.67485C17.1144 9.42735 17.3153 9.22933 17.5607 9.23237C17.8061 9.23537 18.0025 9.43787 17.9995 9.68537L17.992 10.3019C19.0764 10.4699 20.0938 11.2454 20.1042 12.3614C20.1057 12.6089 19.9094 12.8114 19.6624 12.8129C19.417 12.8144 19.2162 12.6164 19.2147 12.3674C19.2043 11.3249 17.3375 10.7204 16.2428 11.5559C15.9616 11.7704 15.7876 12.0569 15.7876 12.3629H15.7861C15.7876 12.6704 15.9572 12.9554 16.2398 13.1729C16.5507 13.4129 16.9895 13.5614 17.4833 13.5614V13.5629L17.4997 13.5644ZM12.881 18.6704C15.432 21.2429 19.5674 21.2429 22.1167 18.6704C24.6677 16.0979 24.6677 11.9278 22.1167 9.3569C19.5658 6.7844 15.4304 6.7844 12.881 9.3569C10.3315 11.9279 10.3315 16.0996 12.881 18.6704ZM32.5424 29.3491V15.7398H27.8301V29.3491H25.3729L30.1864 36L35 29.3491H32.5424ZM19.856 21.3527V25.1372H22.3133L17.4997 31.7896L12.6861 25.1387H15.1434V21.3542C16.6755 21.7982 18.3239 21.7982 19.856 21.3527ZM7.16957 20.7587V15.7398H2.45728V20.7587H0L4.81358 27.4096L9.62715 20.7587H7.16957ZM3.70228 14.448H10.0881C9.84271 10.1461 13.2326 6.52647 17.5002 6.52647C21.7678 6.52647 25.1575 10.146 24.9123 14.448H31.2982V12.018L27.8428 11.0115C27.6093 10.1685 27.2761 9.35402 26.8477 8.59201L28.5865 5.41652L25.9269 2.73451L22.778 4.488C22.0223 4.0575 21.2161 3.72 20.3787 3.4845L19.3806 0H15.6188L14.6207 3.4845C13.7833 3.72 12.9771 4.056 12.2214 4.488L9.07249 2.73451L6.4129 5.41652L8.15174 8.59201C7.72484 9.35402 7.38867 10.167 7.15662 11.0115L3.70125 12.018L3.70228 14.448Z" fill="#3F77A5"/>
</svg>
