<svg width="51" height="52" viewBox="0 0 51 52" fill="none" xmlns="http://www.w3.org/2000/svg">
<g id="Group 1410136224">
<g id="Group 1410136207">
<path id="Vector" fill-rule="evenodd" clip-rule="evenodd" d="M3.80433 0.839844H46.9497C49.0438 0.839844 50.754 2.50743 50.754 4.55712V47.3644C50.754 49.4034 49.0438 51.0816 46.9497 51.0816H3.80433C1.71022 51.0816 0 49.4133 0 47.3644V4.55712C0 2.50743 1.71022 0.839844 3.80433 0.839844Z" fill="white"/>
<path id="Vector_2" fill-rule="evenodd" clip-rule="evenodd" d="M50.754 34.2236V47.3639C50.754 49.4028 49.0438 51.081 46.9497 51.081H3.80433C1.71022 51.081 0 49.4127 0 47.3639V34.2236H50.754Z" fill="#3F77A5"/>
<path id="Vector_3" fill-rule="evenodd" clip-rule="evenodd" d="M8.91327 9.0486H17.5698V10.1193C19.6838 6.59778 23.5513 4.22949 27.9672 4.22949C33.6163 4.22949 38.3647 8.09115 39.7017 13.3016C40.3034 11.7464 41.4019 10.4388 42.8013 9.59435C45.2578 8.40978 47.0103 8.59544 49.5706 9.76929V13.6615C47.912 12.0146 45.7871 10.7681 43.6722 12.8178C42.9467 13.569 42.4282 14.6298 42.4174 16.0612C42.4174 17.122 42.739 18.1109 43.3299 18.8827C45.2894 21.4054 47.9635 20.4272 49.5291 18.399L49.5706 22.4455C47.1549 23.5475 45.424 23.7019 43.0498 22.6725C41.5989 21.8693 40.438 20.5815 39.7848 19.0164C38.5616 24.4027 33.731 28.4287 27.9672 28.4287C21.2802 28.4287 15.8488 23.0117 15.8488 16.3393C15.8488 14.7428 16.1595 13.2092 16.7296 11.8083H14.8848V22.9813H11.4943V11.7983H8.91327V11.4062L8.85094 11.6028C8.62325 11.942 8.39469 12.3126 8.167 12.6527C7.40996 11.757 5.55434 10.9638 4.8189 12.0658C4.31033 12.8178 4.81894 13.5278 5.60673 13.9711C6.88148 14.5373 7.89778 14.5473 8.98639 15.6394C9.85644 16.5244 10.1365 17.7913 10.0226 18.9957C9.82567 21.251 8.167 22.8888 6.50833 23.1868C3.35719 23.6301 1.83311 22.188 0.640625 20.3654L2.88018 18.3784C2.96328 18.924 3.20181 19.3251 3.52258 19.6347C4.0727 20.1489 5.04657 20.6022 5.81358 20.3966C6.10443 20.324 6.33215 20.1597 6.49835 19.9434C6.92299 19.387 6.92299 18.4914 6.47757 17.9969C6.15597 17.6469 5.62748 17.4208 5.06739 17.1526C3.76106 16.6482 1.88465 15.721 1.42926 14.269C1.22151 13.6103 1.23232 12.8484 1.41847 12.1071C1.74006 10.8193 2.54865 9.65616 3.79265 9.11051C5.25438 8.46168 7.0161 8.8217 8.89249 9.71818V9.0486H8.91327Z" fill="#3F77A5"/>
<path id="Vector_4" fill-rule="evenodd" clip-rule="evenodd" d="M27.9705 8.24512C32.4379 8.24512 36.0661 11.8591 36.0661 16.3283C36.0661 20.7876 32.4379 24.4123 27.9705 24.4123C23.5022 24.4123 19.874 20.7975 19.874 16.3283C19.874 11.8591 23.5022 8.24512 27.9705 8.24512Z" fill="white"/>
<path id="Vector_5" fill-rule="evenodd" clip-rule="evenodd" d="M35.7021 34.3392L25.1592 17.4209L46.3588 34.226C46.3588 34.226 35.6289 34.2261 35.7021 34.3392Z" fill="#3F77A5"/>
<path id="Vector_6" d="M4.29212 45.9005V38.0748L4.8829 37.6729V45.5819L4.29212 45.9005ZM44.1816 44.9842L43.6739 44.0886L44.1716 43.1309L44.6586 44.0886L44.1816 44.9842ZM44.1924 41.854L43.7046 40.9171L44.1924 39.9594L44.7002 40.9171L44.1924 41.854ZM40.5742 45.8187L40.5119 45.6537L40.3773 45.283L40.305 45.0255L40.2111 45.0461L40.128 45.056C40.0457 45.056 39.9519 45.0362 39.8488 44.9842C39.7549 44.9331 39.6519 44.8504 39.558 44.7266C39.3718 44.4798 39.2372 44.1604 39.1333 43.7592C39.0818 43.5429 39.0502 43.2746 39.0502 42.956C39.0502 42.4301 39.1433 41.9671 39.3195 41.5452C39.4956 41.1333 39.745 40.9269 40.0666 40.9269H40.3981V40.2369H38.6879V39.413H41.7252V40.2369H40.9266V41.5659H40.4188H40.0873C39.9519 41.5659 39.8488 41.679 39.7657 41.9159C39.7242 42.029 39.6934 42.1734 39.6726 42.3377L39.6411 42.7909C39.6411 43.3572 39.745 43.7799 39.9627 44.068L40.0765 44.1397L40.2111 44.1604L40.1695 44.0778L40.1388 43.9961L40.0765 43.7484V43.5016C40.0765 43.1821 40.128 42.9453 40.2427 42.7909L40.4188 42.6258C40.4911 42.5853 40.5634 42.554 40.6366 42.544C40.7712 42.544 40.8751 42.616 40.9474 42.7604C40.9989 42.8834 41.0405 43.1103 41.082 43.4397C41.082 43.821 41.0097 44.119 40.8751 44.3559L40.7197 44.5723L40.792 44.8504L40.9058 45.1798L41.0197 45.4481L41.0513 45.5092L41.082 45.52C41.0513 45.6645 40.9474 45.7982 40.7712 45.9526L40.7189 45.9732L40.6466 46.0243L40.5742 45.8187ZM39.4341 43.9135L39.2787 44.181L39.1541 44.3461C39.0818 44.4385 38.9571 44.5418 38.7909 44.6548C38.6771 44.7267 38.5525 44.7679 38.4287 44.7679H38.1694L38.0032 44.6853C37.6409 44.469 37.4647 44.0366 37.4647 43.3679C37.4647 42.8214 37.5785 42.3996 37.817 42.1115L37.5885 41.967C37.537 41.9257 37.4746 41.8539 37.4231 41.7614C37.2677 41.5138 37.1846 41.1944 37.1846 40.8031C37.1846 40.4019 37.2777 40.0312 37.4647 39.6911C37.6508 39.3518 37.9002 39.1868 38.2209 39.1868C38.501 39.1868 38.6978 39.3717 38.8017 39.753L38.8433 40.1345C38.8433 40.577 38.7602 40.8757 38.584 41.0301L38.4702 41.1333L38.3148 41.215L38.0863 40.7314L38.1378 40.6901L38.1902 40.6282L38.2209 40.5769L38.2525 40.5258L38.2832 40.4118V40.2682C38.2832 40.2062 38.2832 40.1551 38.2832 40.1237L38.2525 40.0205L38.1902 39.9694H38.117C38.0863 39.9694 38.0447 39.99 38.014 40.0205L37.9309 40.1345C37.8785 40.2369 37.8478 40.3813 37.8478 40.5671C37.8478 40.8552 37.9101 41.092 38.0348 41.267C38.0962 41.3701 38.1694 41.4421 38.2417 41.504L38.3762 41.5659H38.4702L38.6671 41.5246C38.7394 41.504 38.781 41.4833 38.8117 41.4627L38.9048 41.4008L39.0087 41.3389L39.1333 41.2357L39.0087 42.0802L38.7494 42.1527L38.5732 42.2247C38.2832 42.3485 38.1378 42.6365 38.1378 43.0996C38.1378 43.2953 38.1901 43.4603 38.2931 43.6048L38.4494 43.7691L38.6355 43.8203C38.8325 43.8203 39.0294 43.6659 39.2056 43.3679L39.3195 43.1822L39.4549 42.9147L39.4341 43.9135ZM39.0402 40.2475V39.4236H39.258V40.2475H39.0402ZM35.6913 45.7156V40.2475H35.1836V39.4336H35.6498L35.5775 39.2585L35.5259 39.0531L35.4844 38.8161V38.5487C35.4844 37.9097 35.6705 37.4261 36.0445 37.1066C36.3345 36.8697 36.7492 36.7458 37.2877 36.7458C37.8378 36.7458 38.2832 36.8697 38.6255 37.1066C39.0502 37.3947 39.2679 37.8685 39.2679 38.5487C39.2679 38.9399 39.2056 39.2074 39.0918 39.3617L39.0087 39.4649L38.9048 39.5368H38.3555L38.3347 39.3519L38.3663 39.3313L38.397 39.2792L38.4287 39.2379L38.4494 39.1966C38.501 39.0835 38.5316 38.8987 38.5632 38.651C38.5632 38.1772 38.4079 37.838 38.1071 37.6218C37.9616 37.5186 37.8378 37.4773 37.7231 37.4773L37.2154 37.436L36.8522 37.4773C36.7799 37.4773 36.6968 37.5087 36.6037 37.5598C36.3137 37.7043 36.1683 38.0542 36.1683 38.5891C36.1683 38.7336 36.1683 38.826 36.1683 38.8574L36.2199 39.1249L36.2822 39.3313L36.3138 39.4336H37.3192V40.2475H36.3761L36.3653 44.9742L35.6913 45.7156ZM35.1628 48.0534L34.9352 48.2383L34.6966 48.3621L34.4581 48.4132C34.2296 48.4132 34.0119 48.2895 33.8257 48.0327C33.5972 47.7232 33.4734 47.3633 33.4734 46.9514C33.4734 46.57 33.5664 46.2506 33.7534 45.9938C33.9396 45.7363 34.1781 45.6025 34.4581 45.6025C34.5412 45.6025 34.6036 45.6025 34.6235 45.6025L34.8412 45.7049L34.9035 45.7668L34.8936 46.3024H34.8412H34.7482H34.5304C34.4058 46.3024 34.2919 46.3851 34.2088 46.5601C34.1781 46.6319 34.1681 46.735 34.1473 46.8787C34.1473 47.0339 34.1781 47.1776 34.2296 47.3014C34.282 47.4252 34.3543 47.5069 34.4374 47.5589L34.5928 47.6102C34.7174 47.6102 34.8521 47.5276 34.9767 47.3633L35.0589 47.2601L35.1528 47.1157L35.3182 47.8676L35.1628 48.0534ZM33.1726 44.3048C32.9649 45.0048 32.6748 45.3655 32.3017 45.3655C32.177 45.3655 32.074 45.3243 31.9909 45.2417L31.877 45.1081C31.8147 45.0049 31.7524 44.8603 31.69 44.644L31.6385 44.3255L31.6177 43.9548C31.6177 43.3571 31.7939 42.8735 32.1563 42.5334L32.3848 42.3583L32.7064 42.194V41.9051C32.7064 41.7821 32.6956 41.6583 32.6748 41.5344C32.6648 41.2876 32.6333 41.0715 32.5917 40.8965C32.5817 40.7627 32.5502 40.6595 32.5194 40.5869L32.4263 40.2575H31.2754V39.4336H35.5775V40.2575H34.6343V44.9842L33.9604 45.7256V42.9766L33.8465 42.956L33.4002 42.7604L33.3903 43.1928C33.3487 43.5635 33.2865 43.9342 33.1726 44.3048ZM33.9504 40.2475H33.0795L33.1726 40.6282L33.2557 40.9888L33.3487 41.5659C33.3695 41.7301 33.3795 41.9052 33.3795 42.0802L33.9504 42.194V40.2475ZM32.561 42.9766L32.4571 43.1409C32.3432 43.3159 32.2601 43.5529 32.2186 43.841L32.1878 44.2016V44.3255L32.1978 44.4897L32.2186 44.6036L32.2601 44.6755H32.3225C32.4155 44.6755 32.5095 44.4592 32.5917 44.0365C32.6441 43.7592 32.6856 43.4396 32.7064 43.0896V42.7811L32.561 42.9766ZM30.1037 45.7156V42.6671L28.9328 42.6572L28.7774 42.8833L28.6112 43.0277L28.425 43.1203H28.2381H28.2074H28.1757H28.1451C28.1451 43.4496 28.1965 43.8211 28.3104 44.2223C28.4558 44.7473 28.6112 45.0049 28.7982 45.0049C28.8913 45.0049 28.9536 44.943 28.9951 44.8191L29.0367 44.6136V44.3667V44.2321V44.181V44.068V43.9961L29.689 43.7278C29.689 44.0679 29.6583 44.4179 29.596 44.758C29.4614 45.4267 29.1921 45.7668 28.7874 45.7668C28.4043 45.7668 28.0927 45.4069 27.8442 44.6961C27.6573 44.1092 27.5434 43.4291 27.4919 42.6572L27.4603 42.1421L27.4296 41.5857L28.0827 41.205L28.1134 42.3477L28.1451 42.3889L28.1866 42.4096L28.2282 42.4104H28.2688L28.3935 42.3691L28.4866 42.2551C28.5597 42.1115 28.6012 41.8844 28.6012 41.5757L28.5904 41.3289L28.5181 40.5877L28.4866 40.4118L28.4658 40.2369H27.0456V39.413H31.7108V40.2369H30.7677V44.9636L30.1037 45.7156ZM30.1037 41.6889V40.2475H29.1813L29.2021 40.4944L29.2336 40.752L29.2644 41.0095V41.1952V41.4725L29.2336 41.6889H30.1037ZM25.2423 37.6935L25.1385 37.5598L24.9831 37.436L24.8277 37.3535L24.6822 37.313C24.5892 37.313 24.5061 37.4154 24.423 37.6218L24.3607 37.9403L24.3299 38.2597V38.5074C24.3399 38.6824 24.3815 38.9499 24.4338 39.3106C24.4438 39.3923 24.4546 39.4444 24.4646 39.4543L24.4961 39.6292L24.0607 39.6194L23.9776 39.413L23.9153 39.2173C23.8114 38.9085 23.7599 38.5685 23.7599 38.2086C23.7599 37.6423 23.843 37.2304 23.9984 36.9522C24.1845 36.6533 24.4338 36.5098 24.7446 36.5098C24.8169 36.5098 24.8692 36.5097 24.9 36.5196C24.9307 36.5196 24.9831 36.5403 25.0454 36.5709C25.1177 36.6022 25.1592 36.6228 25.2008 36.6434C25.2315 36.6641 25.2731 36.6947 25.3254 36.7566L25.4185 36.8598L25.5424 36.9934L25.2423 37.6935ZM24.4646 39.3106L24.3815 39.4336L24.1646 39.6813C24.0914 39.7325 24.0191 39.753 23.9468 39.753H23.9153H23.8845L23.8529 39.7118L23.8114 39.6705L23.3552 38.7849L22.9721 38.1261C22.889 37.9717 22.8167 37.8999 22.7851 37.8999C22.7336 37.8999 22.6713 37.9204 22.6297 37.951C22.5674 37.9716 22.5051 38.013 22.4436 38.0848L22.3605 38.1674L22.2566 38.2804L21.9873 37.5292L22.3605 37.2098L22.7336 36.9522L22.982 36.8696C23.0551 36.8696 23.2106 37.0761 23.4382 37.4979L24.1745 38.8574L24.2468 38.8368L24.3399 38.7542L24.3607 38.7444L24.3923 38.6923L24.5576 39.115L24.4646 39.3106ZM23.2621 40.2475V39.4236H25.3878V40.2475H24.4438L24.4338 44.9742L23.7599 45.7156V40.2475H23.2621ZM22.8167 41.0606L22.7851 41.3908L22.7644 41.6889C22.7644 41.7714 22.7544 41.8226 22.7436 41.8334V41.9778V42.1421V42.2866L22.7644 42.8626C22.7644 43.017 22.7851 43.1616 22.8375 43.2854C22.9206 43.5842 23.0443 43.7386 23.2205 43.7386L23.3659 43.6973L23.5213 43.5841L23.6044 43.5016L23.7183 43.3365L22.8167 41.0606ZM23.8945 44.0365L23.7806 44.2016C23.6768 44.3255 23.5629 44.4286 23.4382 44.5004L23.2413 44.5623H23.076C22.7544 44.5623 22.5059 44.3462 22.3189 43.9029C22.2358 43.7279 22.1735 43.4604 22.1112 43.1203C22.1012 43.0584 22.0912 42.9766 22.0804 42.8528C22.0704 42.729 22.0596 42.6366 22.0596 42.554V42.194V41.7202L22.122 41.1019L22.1635 40.7314L22.2358 40.2475L21.7488 40.2369V39.413H23.6768V40.2369H22.9929L24.0291 42.8322V43.7897L23.8945 44.0365ZM19.7686 45.7156V44.0572L19.7062 44.1397L19.6439 44.2124L19.5716 44.294L19.4885 44.3667L19.3124 44.4798L19.147 44.521C18.867 44.521 18.6492 44.3255 18.473 43.9442C18.3068 43.5636 18.2138 43.1104 18.2138 42.5953C18.2138 41.7715 18.4008 41.2357 18.7631 40.9888C18.9085 40.9063 19.0431 40.865 19.157 40.865C19.2401 40.865 19.3124 40.8757 19.3855 40.9063C19.4578 40.9377 19.5201 40.9888 19.6032 41.0714L19.6855 41.1539L19.7793 41.277L19.4578 41.8953L19.3955 41.8127L19.3539 41.7508L19.2401 41.627L19.157 41.5757C19.1154 41.5757 19.0639 41.6063 19.0224 41.6583C18.9808 41.7202 18.9393 41.7813 18.8977 41.854L18.8254 42.1734L18.7938 42.5128V42.6877C18.7938 42.8833 18.8354 43.0789 18.9085 43.2746C18.9392 43.3679 19.0016 43.4604 19.0947 43.5529L19.2085 43.6246L19.344 43.6452C19.3955 43.6452 19.4262 43.6353 19.4469 43.6246L19.5617 43.5116L19.6547 43.3679L19.7586 43.1516V40.2369H17.8298V39.413H22.2882V40.2369H20.4217V41.39L20.5564 41.205L20.6918 41.04L20.8888 40.8965L21.0957 40.8444C21.5827 40.8444 21.8211 41.442 21.8211 42.6464V43.0071V43.1928C21.8211 43.2952 21.8111 43.4702 21.7696 43.7071L21.7588 43.8203L21.738 43.9442L21.0334 44.9017L21.0857 44.5723L21.1165 44.294L21.1788 43.604L21.2095 43.0071L21.1887 42.5639C21.158 42.2452 21.1065 42.0497 21.0234 41.977L20.868 41.8953C20.7949 41.8953 20.7226 41.9671 20.6295 42.1008L20.5156 42.3377L20.4118 42.6052V44.9742L19.7686 45.7156ZM18.1307 42.2659C18.0891 42.2139 17.9545 42.1115 17.7368 41.9464C17.6122 41.8746 17.4983 41.8334 17.3745 41.8334L17.239 41.8746C17.1775 41.9258 17.1252 42.029 17.0944 42.1834V42.5028L17.1152 42.956L17.1775 43.3778C17.2083 43.594 17.2598 43.9028 17.3637 44.2842L17.4676 44.7168L17.633 45.283L16.9182 45.8494L16.7936 45.3036L16.7105 44.8711C16.6274 44.469 16.5659 43.9854 16.5135 43.4092V43.0377C16.5135 42.4508 16.6274 41.9571 16.8659 41.5551C17.0944 41.1539 17.3845 40.9584 17.7161 40.9584C17.913 40.9584 18.0999 41.0194 18.2653 41.1539L18.3692 41.2357L18.5038 41.3495V42.6877L18.1307 42.2659ZM16.0781 40.2475V39.4236H18.1099V40.2475H16.0781ZM15.5288 39.3106L15.4457 39.4336L15.228 39.6813C15.1557 39.7325 15.0834 39.753 15.0103 39.753H14.9795H14.948L14.9172 39.7118L14.8756 39.6705L14.4194 38.7849L14.0364 38.1261C13.9533 37.9717 13.881 37.8999 13.8494 37.8999C13.7979 37.8999 13.7355 37.9204 13.694 37.951C13.6317 37.9716 13.5693 38.013 13.507 38.0848L13.4247 38.1674L13.3209 38.2804L13.0516 37.5292L13.4247 37.2098L13.7979 36.9522L14.0464 36.8696C14.1187 36.8696 14.2748 37.0761 14.5025 37.4979L15.2388 38.8574L15.3111 38.8368L15.4042 38.7542L15.425 38.7444L15.4565 38.6923L15.6219 39.115L15.5288 39.3106ZM14.3372 40.2475V39.4236H16.462V40.2475H15.5189L15.5081 44.9742L14.8341 45.7156V40.2475H14.3372ZM12.6677 40.2475V39.4236H14.7925V40.2475H13.8494L13.8394 44.9742L13.1654 45.7156V40.2475H12.6677ZM12.1076 40.9171L12.0669 40.6182L12.0145 40.2475H11.7137L11.673 40.5869L11.6107 41.0812L11.5583 41.627L11.5483 42.0496L11.5691 42.6258C11.5691 42.8016 11.5791 42.9766 11.6107 43.1309C11.6414 43.2853 11.683 43.4289 11.7345 43.5635C11.7661 43.6659 11.8176 43.7071 11.8691 43.7071C11.973 43.7071 12.0561 43.5321 12.1076 43.1722L12.17 42.6266L12.1907 42.0389V41.6583L12.1076 40.9171ZM12.7093 40.2475L12.7607 40.6075L12.8132 40.9987L12.8438 41.4313V41.8226L12.8231 42.317C12.8231 42.3789 12.8231 42.4616 12.8132 42.5334C12.8024 42.616 12.7923 42.7083 12.7815 42.8007C12.6785 43.4702 12.4916 43.9441 12.2323 44.2016C12.0869 44.3354 11.9522 44.3972 11.8076 44.3972C11.5276 44.3972 11.299 44.1917 11.1129 43.7691C11.0198 43.5528 10.9575 43.2853 10.9051 42.9658L10.8537 42.4715L10.8428 41.9876L10.8537 41.5551L10.916 41.0193L10.9575 40.6388L11.0199 40.2475L10.5013 40.2369V39.413H12.9161V40.2369H12.7093V40.2475ZM10.3143 48.2589C10.1074 48.5578 9.85807 48.7013 9.57885 48.7013H9.3711C9.32955 48.7013 9.2988 48.7014 9.26723 48.6915C9.23648 48.6808 9.18502 48.6609 9.08114 48.6196C8.95649 48.5882 8.81105 48.5164 8.64568 48.4132C8.47948 48.31 8.32406 48.1763 8.15869 48.0219C8.03404 47.9088 7.93016 47.7851 7.82629 47.6414L8.29332 46.858L8.52103 47.1776L8.69721 47.4046C8.82186 47.559 8.98718 47.6926 9.18413 47.8264C9.36113 47.9188 9.52651 47.96 9.65116 47.96C9.74423 47.96 9.83732 47.8883 9.92042 47.7438C9.952 47.6926 9.97278 47.6002 10.0135 47.4665L10.0143 47.1776L9.97276 46.9406C9.94118 46.8275 9.88966 46.7351 9.80656 46.6633L9.67193 46.622C9.58883 46.622 9.5373 46.6426 9.49575 46.6839L9.24645 46.8895L9.13268 47.0025L8.97727 47.1676L8.96729 46.0656L9.07035 45.9938L9.25733 45.8807L9.55807 45.7462L9.79658 45.7049H9.94119C9.97277 45.7049 10.0243 45.7363 10.0758 45.7875C10.2728 45.9319 10.4182 46.1894 10.5321 46.5394C10.5736 46.7144 10.5944 46.8894 10.5944 47.085C10.6152 47.5589 10.5113 47.9502 10.3143 48.2589ZM8.41716 40.2475L8.54181 40.6694L8.64568 41.0714L8.75954 41.7921C8.77034 41.8953 8.7803 41.9778 8.79111 42.0389C8.79111 42.1008 8.80109 42.194 8.80109 42.317C8.80109 42.5127 8.79112 42.6876 8.78031 42.842C8.77034 42.9972 8.73875 43.1615 8.70801 43.3365C8.62491 43.7385 8.50024 44.0778 8.31409 44.3461C8.23099 44.4592 8.13792 44.5516 8.02325 44.6242C7.9202 44.696 7.80634 44.7266 7.69166 44.7266C7.43239 44.7266 7.20474 44.5624 7.02856 44.2331C6.94546 44.0779 6.87317 43.8722 6.80004 43.6048C6.74852 43.3778 6.72773 43.0898 6.72773 42.7398V42.4821C6.72773 42.369 6.7485 42.2452 6.78008 42.1115C6.85237 41.6888 6.98702 41.3908 7.18397 41.2257L7.27705 41.1539L7.46403 41.1019H7.5679L7.71243 41.1638L7.77476 41.205L7.85786 41.2563L7.67088 41.9257H7.65011L7.62933 41.9159L7.55711 41.8953L7.50558 41.8845L7.41168 41.9051C7.37096 41.9051 7.32939 41.9877 7.28785 42.1421V42.3789C7.28785 42.7603 7.35018 43.1103 7.46403 43.419C7.58784 43.7278 7.71243 43.8822 7.83708 43.8822C7.93015 43.8822 8.00246 43.7798 8.07559 43.5833L8.13791 43.2028L8.16867 42.6572C8.16867 42.3072 8.12711 41.9258 8.03404 41.5246C7.97171 41.1738 7.88861 40.8551 7.78474 40.5769L7.67088 40.2475H6.28229V39.4236H10.8843V40.2475H9.95199V44.9742L9.2781 45.7156V40.2475H8.41716ZM48.1621 45.9005V38.0748L48.7529 37.6729V45.5819L48.1621 45.9005ZM46.1511 45.9005V38.0748L46.7419 37.6729V45.5819L46.1511 45.9005ZM2.28027 45.9005V38.0748L2.87106 37.6729V45.5819L2.28027 45.9005Z" fill="white"/>
</g>
</g>
</svg>
