<svg width="33" height="35" viewBox="0 0 33 35" fill="none" xmlns="http://www.w3.org/2000/svg">
<path fillRule="evenodd" clipRule="evenodd" d="M27.3644 15.0409C27.3644 13.0773 27.1807 13.1754 28.6415 13.5602C29.3389 13.7439 29.1978 13.8601 29.1978 15.1769C29.1978 15.7453 28.7782 15.6561 28.3562 15.5441C28.001 15.4498 27.3645 15.4228 27.3645 15.0409H27.3644ZM17.4508 21.6274C17.4508 23.3674 17.2506 23.7323 17.994 23.7323V21.2879C17.7701 21.2879 17.4508 21.3148 17.4508 21.6274ZM29.4693 33.9853H30.0803C30.3604 33.9853 30.6914 33.7571 30.6914 33.5101V33.1706H28.9939C28.6137 33.1706 28.8414 33.9853 29.4691 33.9853H29.4693ZM19.6915 33.3743C19.6915 34.2286 21.5927 34.2286 21.5927 33.3743C21.5927 33.02 20.8738 33.1706 19.8952 33.1706C19.7388 33.1706 19.6915 33.2177 19.6915 33.3743ZM32.389 23.7323C32.7872 23.7323 33 23.6478 33 23.257V21.7633C33 21.3725 32.7871 21.288 32.389 21.288V23.7324V23.7323ZM1.62966 20.0657C1.62966 20.4153 0.959244 20.2694 0 20.2694V21.8991C0 22.0555 0.0472954 22.1028 0.203725 22.1028H15.0741C15.2305 22.1028 15.2778 22.0556 15.2778 21.8991V20.2694H13.6481V18.9792H11.068V20.2694H4.20983V18.9792H1.6295V20.0657H1.62966ZM19.0124 20.2694V26.3804H24.6483V18.9113H20.1668C19.4367 18.9113 19.0124 19.5284 19.0124 20.2694ZM25.7346 26.3804H31.3705V20.0657C31.3705 19.4957 30.8741 18.9113 30.3519 18.9113H25.7346V26.3804ZM21.4568 30.726C20.2323 30.726 20.0964 28.8926 21.5247 28.8926C22.1956 28.8926 22.6563 29.8419 22.0903 30.4087C21.945 30.5541 21.7159 30.726 21.4569 30.726H21.4568ZM26.2098 30.3186C25.3711 30.3186 23.6976 30.5241 23.6976 29.9111C23.6976 29.5886 23.7195 29.3001 24.1729 29.3001H26.3456C26.8256 29.3001 26.9707 30.3186 26.2098 30.3186ZM28.9939 30.726C27.7893 30.726 27.7642 28.8926 28.9939 28.8926C30.2213 28.8926 30.1924 30.726 28.9939 30.726ZM19.0124 32.152H31.3705V27.4667H19.0124V32.152ZM23.8334 13.9545C23.8334 11.7633 23.7784 11.9371 25.1664 12.4179C25.9718 12.6968 25.8025 12.6824 25.8025 14.4299C25.8025 15.0693 24.6905 14.6055 24.4669 14.5433C24.1043 14.4426 23.8335 14.3901 23.8335 13.9545H23.8334ZM20.3703 13.0038V10.763C20.3703 10.5704 20.6047 10.4235 20.7778 10.4235L22.0739 11.0965C22.2216 11.1813 22.4073 11.23 22.4073 11.4421C22.4073 12.106 22.4821 13.07 22.3393 13.6828C21.7906 13.8143 21.8508 13.7318 21.108 13.4883C20.8615 13.4075 20.3702 13.2859 20.3702 13.0038H20.3703ZM3.53085 12.9359H3.19136C2.52048 12.9359 1.90119 12.3166 1.90119 11.6457C1.90119 11.1228 1.87287 10.8709 2.3564 10.4033C3.12967 9.65528 4.82101 9.93554 4.82101 11.5779C4.82101 12.2405 4.18856 12.9359 3.53085 12.9359ZM16.8395 11.3062V8.18266C16.8395 7.90837 16.9874 7.7074 17.2469 7.7074C17.5257 7.7074 17.9911 8.28292 18.1797 8.47226C19.2542 9.55227 19.0124 8.46261 19.0124 12.1889C19.0124 12.8956 17.8635 12.2208 17.5959 12.1116C17.0474 11.8878 16.8396 11.8433 16.8396 11.3062H16.8395ZM12.2222 12.9359C11.6995 12.9359 11.4474 12.964 10.9798 12.4807C10.1583 11.6316 10.6464 10.016 12.1542 10.016C13.9824 10.016 13.9709 12.9359 12.2222 12.9359ZM2.30864 6.89265C2.30864 6.51459 2.49094 5.93876 2.58829 5.6106C2.83304 4.78605 3.02865 2.95435 4.82086 2.95435H11.2715C12.1471 2.95435 12.9124 3.53369 13.1443 4.20502L13.5802 6.89265C13.5802 7.1126 13.2851 7.3001 13.037 7.3001H2.85186C2.60375 7.3001 2.30864 7.1126 2.30864 6.89265ZM0 7.97909V13.3433C0 15.6313 1.6944 17.3494 3.87034 17.3494H30.2839C30.5127 17.3494 30.7592 17.2294 30.7592 17.0099V12.8679C30.7592 12.5316 30.5821 12.4793 30.3456 12.3988C27.7653 11.5196 25.5944 11.0155 22.9966 9.56252C20.3462 8.08011 19.2938 7.03316 17.625 4.74901C17.0045 3.89951 16.3768 2.46945 15.7247 1.96419C14.8696 1.30158 14.2132 0.985352 12.969 0.985352H4.82086C3.04365 0.985352 1.75012 2.0121 1.17598 3.24777C0.866793 3.91267 0 7.22449 0 7.97924V7.97909Z" fill="white"/>
</svg>
