<svg width="33" height="33" viewBox="0 0 33 33" fill="none" xmlns="http://www.w3.org/2000/svg">
<path fillRule="evenodd" clipRule="evenodd" d="M0 31.7125C0.00106823 32.3785 0.621354 32.9989 1.28745 33H4.12503V16.6288C4.12503 15.7718 4.67849 15.1465 5.54293 15.1465H27.4571C28.3215 15.1465 28.875 15.7718 28.875 16.6288V33H31.7125C32.3785 32.9989 32.9989 32.3785 33 31.7125V11.5362C32.9989 10.9531 31.8054 10.2921 31.1819 9.87475L22.4419 3.85502C22.2462 3.7222 22.1057 3.60683 21.9144 3.48019L17.7891 0.644501C17.2376 0.277147 16.929 0.0632632 16.6637 0H16.3366C16.0767 0.0620763 15.7778 0.269076 15.2495 0.618507L0.825148 10.5575C0.514293 10.7631 0.00106823 11.0597 0.000118692 11.5356V31.7127L0 31.7125ZM12.375 18.498V24.1054C12.375 24.4558 12.6723 24.75 13.0196 24.75H19.9804C20.3425 24.75 20.625 24.4675 20.625 24.1054V18.498C20.625 18.0948 20.2676 17.8534 19.8515 17.8534H17.5312C17.5312 18.5816 17.6989 19.9159 16.5 19.9159C15.301 19.9159 15.4688 18.5816 15.4688 17.8534H13.1485C12.7325 17.8534 12.375 18.0947 12.375 18.498ZM17.1445 27.0702V32.162C17.1445 32.5855 17.3698 32.9988 17.7873 32.9999H24.8161C25.2183 32.9988 25.4589 32.6419 25.4589 32.2264V26.8123C25.4589 26.4357 25.1264 26.1032 24.7498 26.1032H22.3006C22.3006 26.7648 22.4059 27.4737 22.0559 27.8566C21.4959 28.4693 20.3025 28.1354 20.3025 27.1344V26.1032H17.8533C17.3559 26.1032 17.1444 26.5698 17.1444 27.07L17.1445 27.0702ZM7.54099 26.8124V32.2265C7.54099 32.6419 7.78158 32.9989 8.18383 33H15.2125C15.6301 32.9989 15.8554 32.5855 15.8554 32.1621V27.0704C15.8554 26.5701 15.644 26.1036 15.1464 26.1036H12.6972C12.6972 26.9553 12.888 28.1661 11.6016 28.1661C11.2559 28.1661 10.6993 27.8143 10.6993 27.1994V26.1037H8.25006C7.87345 26.1037 7.54099 26.4362 7.54099 26.8128V26.8124Z" fill="white"/>
</svg>
